<svg id="svg" version="1.1" xmlns="http://www.w3.org/2000/svg" xmlns:xlink="http://www.w3.org/1999/xlink" width="400" height="400" viewBox="0, 0, 400,400"><g id="svgg"><path id="path0" d="M12.951 0.409 C 12.450 0.583,11.902 0.673,11.734 0.608 C 11.566 0.544,11.429 0.595,11.429 0.722 C 11.429 0.849,11.348 0.930,11.250 0.902 C 11.152 0.874,10.817 0.992,10.507 1.164 C 10.086 1.397,9.989 1.402,10.124 1.183 C 10.223 1.022,9.890 1.172,9.383 1.516 C 8.876 1.861,8.325 2.143,8.159 2.143 C 7.993 2.143,7.857 2.248,7.857 2.376 C 7.857 2.505,7.589 2.677,7.262 2.759 C 6.935 2.842,6.667 3.011,6.667 3.135 C 6.667 3.260,6.560 3.295,6.429 3.214 C 6.298 3.133,6.190 3.164,6.190 3.283 C 6.190 3.565,3.565 6.190,3.283 6.190 C 3.164 6.190,3.133 6.298,3.214 6.429 C 3.295 6.560,3.260 6.667,3.135 6.667 C 3.011 6.667,2.842 6.935,2.759 7.262 C 2.677 7.589,2.505 7.857,2.376 7.857 C 2.248 7.857,2.143 7.993,2.143 8.159 C 2.143 8.325,1.861 8.876,1.516 9.383 C 1.172 9.890,1.022 10.223,1.183 10.124 C 1.402 9.989,1.397 10.086,1.164 10.507 C 0.992 10.817,0.874 11.152,0.902 11.250 C 0.930 11.348,0.849 11.429,0.722 11.429 C 0.595 11.429,0.544 11.567,0.609 11.737 C 0.674 11.906,0.564 12.508,0.365 13.074 C -0.189 14.644,-0.189 385.356,0.365 386.926 C 0.564 387.492,0.674 388.094,0.609 388.263 C 0.544 388.433,0.595 388.571,0.722 388.571 C 0.849 388.571,0.930 388.652,0.902 388.750 C 0.874 388.848,0.992 389.183,1.164 389.493 C 1.397 389.914,1.402 390.011,1.183 389.876 C 1.022 389.777,1.172 390.110,1.516 390.617 C 1.861 391.124,2.143 391.675,2.143 391.841 C 2.143 392.007,2.248 392.143,2.376 392.143 C 2.505 392.143,2.677 392.411,2.759 392.738 C 2.842 393.065,3.011 393.333,3.135 393.333 C 3.260 393.333,3.295 393.440,3.214 393.571 C 3.133 393.702,3.164 393.810,3.283 393.810 C 3.565 393.810,6.190 396.435,6.190 396.717 C 6.190 396.836,6.298 396.867,6.429 396.786 C 6.560 396.705,6.667 396.740,6.667 396.865 C 6.667 396.989,6.935 397.158,7.262 397.241 C 7.589 397.323,7.857 397.495,7.857 397.624 C 7.857 397.752,7.993 397.857,8.159 397.857 C 8.325 397.857,8.876 398.139,9.383 398.484 C 9.890 398.828,10.223 398.978,10.124 398.817 C 9.989 398.598,10.086 398.603,10.507 398.836 C 10.817 399.008,11.152 399.126,11.250 399.098 C 11.348 399.070,11.429 399.151,11.429 399.278 C 11.429 399.405,11.567 399.456,11.737 399.391 C 11.906 399.326,12.469 399.417,12.987 399.595 C 14.343 400.059,22.513 400.171,22.242 399.722 C 22.087 399.465,22.121 399.461,22.418 399.702 C 22.958 400.139,377.042 400.139,377.582 399.702 C 377.879 399.461,377.913 399.465,377.758 399.722 C 377.487 400.171,385.657 400.059,387.013 399.595 C 387.531 399.417,388.094 399.326,388.263 399.391 C 388.433 399.456,388.571 399.405,388.571 399.278 C 388.571 399.151,388.652 399.070,388.750 399.098 C 388.848 399.126,389.183 399.008,389.493 398.836 C 389.914 398.603,390.011 398.598,389.876 398.817 C 389.777 398.978,390.110 398.828,390.617 398.484 C 391.124 398.139,391.675 397.857,391.841 397.857 C 392.007 397.857,392.143 397.752,392.143 397.624 C 392.143 397.495,392.411 397.323,392.738 397.241 C 393.065 397.158,393.333 396.989,393.333 396.865 C 393.333 396.740,393.440 396.705,393.571 396.786 C 393.702 396.867,393.810 396.836,393.810 396.717 C 393.810 396.598,394.415 395.895,395.155 395.155 C 395.895 394.415,396.598 393.810,396.717 393.810 C 396.836 393.810,396.867 393.702,396.786 393.571 C 396.705 393.440,396.740 393.333,396.865 393.333 C 396.989 393.333,397.158 393.065,397.241 392.738 C 397.323 392.411,397.495 392.143,397.624 392.143 C 397.752 392.143,397.857 392.007,397.857 391.841 C 397.857 391.675,398.139 391.124,398.484 390.617 C 398.828 390.110,398.978 389.777,398.817 389.876 C 398.598 390.011,398.603 389.914,398.836 389.493 C 399.008 389.183,399.126 388.848,399.098 388.750 C 399.070 388.652,399.151 388.571,399.278 388.571 C 399.405 388.571,399.456 388.433,399.391 388.263 C 399.326 388.094,399.436 387.492,399.635 386.926 C 400.189 385.356,400.189 14.644,399.635 13.074 C 399.436 12.508,399.326 11.906,399.391 11.737 C 399.456 11.567,399.405 11.429,399.278 11.429 C 399.151 11.429,399.070 11.348,399.098 11.250 C 399.126 11.152,399.008 10.817,398.836 10.507 C 398.603 10.086,398.598 9.989,398.817 10.124 C 398.978 10.223,398.828 9.890,398.484 9.383 C 398.139 8.876,397.857 8.325,397.857 8.159 C 397.857 7.993,397.752 7.857,397.624 7.857 C 397.495 7.857,397.323 7.589,397.241 7.262 C 397.158 6.935,396.989 6.667,396.865 6.667 C 396.740 6.667,396.705 6.560,396.786 6.429 C 396.867 6.298,396.836 6.190,396.717 6.190 C 396.435 6.190,393.810 3.565,393.810 3.283 C 393.810 3.164,393.702 3.133,393.571 3.214 C 393.440 3.295,393.333 3.260,393.333 3.135 C 393.333 3.011,393.065 2.842,392.738 2.759 C 392.411 2.677,392.143 2.505,392.143 2.376 C 392.143 2.248,392.007 2.143,391.841 2.143 C 391.675 2.143,391.124 1.861,390.617 1.516 C 390.110 1.172,389.777 1.022,389.876 1.183 C 390.011 1.402,389.914 1.397,389.493 1.164 C 389.183 0.992,388.848 0.874,388.750 0.902 C 388.652 0.930,388.571 0.849,388.571 0.722 C 388.571 0.595,388.433 0.544,388.263 0.609 C 388.094 0.674,387.531 0.583,387.013 0.405 C 385.657 -0.059,377.487 -0.171,377.758 0.278 C 377.913 0.535,377.879 0.539,377.582 0.298 C 377.042 -0.139,22.958 -0.139,22.418 0.298 C 22.121 0.539,22.087 0.535,22.241 0.280 C 22.507 -0.162,14.271 -0.047,12.951 0.409 M15.000 3.810 C 14.738 4.071,14.454 4.286,14.368 4.286 C 14.282 4.286,14.406 4.071,14.643 3.810 C 14.880 3.548,15.164 3.333,15.275 3.333 C 15.386 3.333,15.262 3.548,15.000 3.810 M385.357 3.810 C 385.594 4.071,385.718 4.286,385.632 4.286 C 385.546 4.286,385.262 4.071,385.000 3.810 C 384.738 3.548,384.614 3.333,384.725 3.333 C 384.836 3.333,385.120 3.548,385.357 3.810 M13.353 5.456 C 13.080 5.729,12.857 5.880,12.857 5.793 C 12.857 5.554,13.632 4.743,13.749 4.860 C 13.804 4.915,13.626 5.184,13.353 5.456 M387.143 5.751 C 387.143 5.862,386.929 5.738,386.667 5.476 C 386.405 5.214,386.190 4.930,386.190 4.844 C 386.190 4.758,386.405 4.882,386.667 5.119 C 386.929 5.356,387.143 5.641,387.143 5.751 M146.786 48.295 C 150.729 49.248,154.588 50.796,157.857 52.737 C 158.541 53.143,158.713 53.197,158.333 52.887 C 158.006 52.619,156.755 51.887,155.554 51.261 C 154.353 50.634,153.409 50.083,153.457 50.035 C 154.006 49.486,161.769 54.772,164.816 57.770 C 167.755 60.662,170.052 63.359,169.048 62.738 C 168.660 62.499,168.776 62.772,169.212 63.126 C 169.560 63.407,169.586 63.403,169.405 63.095 C 169.223 62.787,169.250 62.783,169.597 63.065 C 170.025 63.412,170.164 63.939,169.762 63.690 C 169.374 63.451,169.491 63.724,169.927 64.078 C 170.274 64.360,170.301 64.356,170.124 64.048 C 169.995 63.824,170.112 63.861,170.435 64.144 C 171.050 64.683,171.136 65.197,170.536 64.743 C 170.176 64.471,170.161 64.475,170.429 64.773 C 170.599 64.964,170.858 65.119,171.004 65.119 C 171.150 65.119,171.319 65.268,171.380 65.450 C 171.456 65.676,171.387 65.720,171.162 65.590 C 170.968 65.478,170.915 65.489,171.032 65.617 C 171.141 65.736,171.346 65.833,171.488 65.833 C 171.630 65.833,171.796 65.982,171.856 66.164 C 171.932 66.390,171.863 66.435,171.638 66.304 C 171.444 66.192,171.391 66.203,171.508 66.331 C 171.617 66.450,171.822 66.548,171.964 66.548 C 172.106 66.548,172.272 66.696,172.332 66.878 C 172.408 67.105,172.339 67.149,172.114 67.019 C 171.920 66.906,171.867 66.917,171.984 67.045 C 172.093 67.164,172.299 67.262,172.440 67.262 C 172.582 67.262,172.748 67.411,172.809 67.593 C 172.882 67.813,172.817 67.860,172.613 67.734 C 172.411 67.610,172.366 67.640,172.480 67.824 C 172.574 67.978,172.747 68.044,172.863 67.972 C 172.980 67.900,173.240 68.161,173.442 68.552 C 173.881 69.400,173.904 69.610,173.535 69.382 C 173.363 69.276,173.324 69.317,173.432 69.491 C 173.527 69.644,173.697 69.712,173.811 69.642 C 174.206 69.398,177.090 75.195,178.481 79.032 C 179.098 80.733,179.160 81.050,178.833 80.848 C 178.715 80.775,178.769 81.215,178.953 81.827 C 179.296 82.969,179.716 83.687,179.415 82.619 C 179.323 82.292,179.196 81.836,179.132 81.607 C 179.068 81.378,179.067 81.190,179.129 81.190 C 179.427 81.190,181.388 88.488,181.932 91.623 C 183.302 99.513,183.776 104.903,183.908 114.048 L 184.012 121.310 183.811 114.643 C 183.600 107.658,183.303 103.225,182.726 98.459 C 182.536 96.892,182.381 95.508,182.381 95.384 C 182.381 95.260,182.323 95.217,182.251 95.289 C 182.180 95.360,182.280 96.744,182.475 98.364 C 183.255 104.866,183.420 108.005,183.425 116.429 C 183.430 125.823,183.166 130.147,182.011 139.605 C 181.653 142.534,181.602 143.243,181.760 143.075 C 181.848 142.982,182.370 138.801,182.858 134.286 C 183.118 131.882,183.563 125.610,183.652 123.095 C 183.702 121.666,183.724 121.806,183.762 123.797 C 183.849 128.361,182.629 140.232,181.190 148.810 C 181.070 149.530,180.853 150.869,180.709 151.786 C 180.565 152.702,180.355 153.935,180.241 154.524 C 180.128 155.113,179.920 156.238,179.778 157.024 C 179.539 158.343,177.584 168.173,177.125 170.357 C 177.015 170.881,176.921 171.408,176.915 171.528 C 176.909 171.648,176.847 171.689,176.777 171.618 C 176.707 171.548,176.820 170.665,177.029 169.655 C 177.237 168.645,177.371 167.707,177.325 167.570 C 177.279 167.433,177.100 168.058,176.926 168.958 C 176.752 169.859,176.301 171.973,175.924 173.656 C 175.547 175.340,175.248 176.894,175.260 177.109 C 175.272 177.324,175.583 176.214,175.952 174.643 C 176.321 173.071,176.633 171.946,176.645 172.143 C 176.666 172.488,176.514 173.238,175.440 178.095 C 174.666 181.598,174.608 181.868,174.075 184.405 C 173.799 185.714,173.362 187.696,173.103 188.810 C 172.843 189.923,172.629 190.932,172.625 191.052 C 172.622 191.172,172.561 191.212,172.491 191.142 C 172.420 191.071,172.742 189.321,173.205 187.253 C 173.668 185.184,174.039 183.322,174.028 183.115 C 174.017 182.908,173.377 185.524,172.606 188.929 C 171.835 192.333,171.238 195.226,171.278 195.357 C 171.319 195.488,171.537 194.738,171.762 193.690 C 172.244 191.459,172.337 191.157,172.362 191.744 C 172.380 192.165,171.629 195.582,171.201 197.024 C 171.021 197.631,171.005 197.577,171.094 196.667 L 171.199 195.595 170.848 196.786 C 170.474 198.056,170.352 199.465,170.714 198.333 C 170.883 197.807,170.908 197.796,170.929 198.238 C 170.942 198.513,170.856 199.049,170.739 199.429 C 170.621 199.808,170.340 200.954,170.113 201.974 C 169.887 202.994,169.658 203.785,169.605 203.732 C 169.552 203.679,169.730 202.642,170.000 201.429 C 170.270 200.215,170.447 199.177,170.392 199.122 C 170.337 199.067,170.111 199.858,169.889 200.880 C 169.668 201.902,169.285 203.429,169.038 204.275 C 168.524 206.033,168.581 206.489,169.123 204.955 C 169.323 204.391,169.495 204.121,169.505 204.357 C 169.537 205.074,168.178 207.619,167.763 207.619 C 167.643 207.619,167.706 207.432,167.903 207.202 C 168.100 206.973,168.346 206.625,168.451 206.429 C 168.555 206.232,168.253 206.514,167.778 207.055 C 166.156 208.905,166.036 208.925,156.190 208.954 C 151.411 208.968,146.107 209.049,144.405 209.135 C 142.702 209.220,138.042 209.451,134.048 209.649 C 121.354 210.275,112.946 210.911,104.167 211.906 C 87.090 213.843,84.159 213.933,82.406 212.576 C 82.183 212.403,82.253 212.503,82.561 212.798 C 83.273 213.477,83.048 213.489,82.143 212.819 C 81.760 212.537,81.505 212.212,81.575 212.099 C 81.645 211.986,81.574 211.922,81.417 211.958 C 81.259 211.994,81.077 211.875,81.011 211.693 C 80.930 211.471,80.991 211.425,81.196 211.551 C 81.398 211.676,81.444 211.646,81.330 211.461 C 81.235 211.308,81.062 211.242,80.945 211.314 C 80.549 211.559,79.022 207.807,79.060 206.683 C 79.067 206.478,79.319 207.142,79.620 208.159 C 79.922 209.177,80.254 210.087,80.360 210.183 C 80.466 210.279,80.483 210.166,80.399 209.932 C 79.967 208.728,79.471 206.754,79.068 204.631 C 78.815 203.300,78.596 202.575,78.567 202.976 L 78.515 203.690 78.333 202.976 C 78.233 202.583,78.150 201.994,78.147 201.667 L 78.143 201.071 78.333 201.667 C 78.687 202.772,78.572 201.436,78.107 199.048 C 77.850 197.725,77.645 197.082,77.615 197.500 L 77.563 198.214 77.381 197.500 C 77.281 197.107,77.199 196.464,77.199 196.071 L 77.199 195.357 77.381 196.071 C 77.743 197.495,77.591 195.814,77.155 193.571 C 76.898 192.249,76.693 191.606,76.663 192.024 L 76.610 192.738 76.429 192.024 C 76.329 191.631,76.247 190.988,76.247 190.595 L 76.247 189.881 76.429 190.595 C 76.773 191.948,76.647 190.389,76.207 187.857 C 75.968 186.482,75.747 185.679,75.715 186.071 L 75.658 186.786 75.476 186.071 C 75.376 185.679,75.294 185.036,75.294 184.643 L 75.294 183.929 75.476 184.643 C 75.846 186.096,75.694 184.642,74.898 179.118 C 72.725 164.043,72.284 157.940,72.445 145.238 C 72.574 135.068,73.047 129.949,74.752 120.238 C 75.251 117.397,75.327 116.599,75.000 117.619 L 74.809 118.214 74.809 117.619 C 74.809 117.292,74.895 116.756,75.000 116.429 L 75.191 115.833 75.234 116.429 C 75.280 117.052,75.774 115.222,76.037 113.452 C 76.145 112.728,76.122 112.614,75.942 112.976 C 75.731 113.399,75.718 113.385,75.825 112.857 C 75.892 112.530,75.955 112.101,75.966 111.905 C 75.979 111.664,76.053 111.703,76.190 112.024 C 76.343 112.380,76.399 112.404,76.412 112.119 C 76.421 111.910,76.943 109.854,77.572 107.551 C 78.201 105.248,78.630 103.416,78.525 103.481 C 78.419 103.546,78.333 103.772,78.333 103.982 C 78.333 104.193,78.275 104.306,78.203 104.234 C 78.034 104.066,78.332 102.867,78.536 102.893 C 78.966 102.950,79.132 102.828,78.862 102.656 C 78.640 102.516,78.620 102.304,78.787 101.886 C 78.919 101.555,79.031 101.462,79.049 101.667 C 79.071 101.914,79.144 101.878,79.286 101.548 C 79.567 100.893,79.567 100.517,79.286 100.952 C 79.081 101.270,79.056 101.270,79.065 100.952 C 79.082 100.322,79.927 98.470,80.041 98.813 C 80.125 99.067,80.187 99.049,80.306 98.738 C 80.391 98.515,80.357 98.333,80.231 98.333 C 79.857 98.333,79.965 97.908,80.455 97.450 C 80.706 97.215,81.134 96.435,81.408 95.714 C 82.016 94.110,82.020 93.842,81.416 95.119 C 80.765 96.493,80.849 95.807,81.534 94.148 C 81.854 93.372,82.219 92.761,82.345 92.790 C 82.471 92.819,82.636 92.679,82.713 92.480 C 82.799 92.255,82.753 92.179,82.591 92.279 C 82.216 92.511,82.511 91.685,83.614 89.419 C 84.127 88.364,84.631 87.520,84.732 87.545 C 84.833 87.570,84.908 87.356,84.898 87.069 C 84.889 86.781,85.010 86.573,85.170 86.604 C 85.329 86.635,85.408 86.528,85.345 86.365 C 85.197 85.978,86.878 82.812,87.144 82.977 C 87.256 83.046,87.426 82.978,87.520 82.824 C 87.628 82.650,87.589 82.609,87.418 82.715 C 87.048 82.944,87.072 82.733,87.510 81.885 C 87.712 81.495,87.973 81.234,88.089 81.306 C 88.205 81.378,88.378 81.311,88.473 81.158 C 88.580 80.983,88.542 80.943,88.370 81.049 C 88.028 81.260,88.020 81.061,88.345 80.454 C 88.483 80.197,88.690 80.045,88.805 80.116 C 88.920 80.188,89.092 80.120,89.187 79.967 C 89.295 79.793,89.256 79.752,89.084 79.858 C 88.743 80.069,88.734 79.871,89.060 79.263 C 89.197 79.006,89.404 78.855,89.519 78.926 C 89.635 78.997,89.807 78.930,89.901 78.777 C 90.015 78.592,89.970 78.562,89.768 78.687 C 89.564 78.813,89.499 78.766,89.572 78.545 C 89.633 78.363,89.799 78.214,89.940 78.214 C 90.082 78.214,90.288 78.117,90.397 77.998 C 90.514 77.870,90.461 77.859,90.267 77.971 C 90.042 78.101,89.973 78.057,90.048 77.831 C 90.109 77.649,90.275 77.500,90.417 77.500 C 90.559 77.500,90.764 77.402,90.873 77.283 C 90.990 77.155,90.937 77.144,90.743 77.257 C 90.518 77.387,90.449 77.343,90.525 77.116 C 90.585 76.935,90.751 76.786,90.893 76.786 C 91.035 76.786,91.240 76.688,91.349 76.569 C 91.466 76.441,91.413 76.430,91.219 76.543 C 90.994 76.673,90.925 76.628,91.001 76.402 C 91.061 76.220,91.231 76.071,91.377 76.071 C 91.523 76.071,91.782 75.916,91.952 75.726 C 92.220 75.427,92.205 75.423,91.845 75.695 C 91.230 76.161,91.341 75.700,92.042 74.881 C 92.378 74.488,92.572 74.327,92.472 74.524 C 92.315 74.831,92.346 74.835,92.692 74.554 C 93.129 74.200,93.245 73.927,92.857 74.167 C 92.455 74.415,92.594 73.888,93.022 73.541 C 93.369 73.259,93.396 73.263,93.214 73.571 C 93.033 73.879,93.059 73.884,93.407 73.602 C 93.843 73.248,93.959 72.975,93.571 73.214 C 93.111 73.499,93.339 72.926,93.865 72.477 C 94.298 72.108,94.337 72.101,94.074 72.440 C 93.614 73.034,93.886 72.957,94.427 72.340 C 94.677 72.056,94.733 71.910,94.552 72.016 C 94.327 72.149,94.258 72.106,94.334 71.878 C 94.395 71.696,94.564 71.548,94.710 71.548 C 94.857 71.548,95.115 71.392,95.286 71.202 C 95.553 70.904,95.538 70.899,95.179 71.172 C 94.578 71.626,94.664 71.112,95.279 70.573 C 95.563 70.323,95.718 70.253,95.622 70.417 C 95.346 70.888,95.599 70.763,96.094 70.183 C 96.463 69.750,96.470 69.711,96.131 69.974 C 95.238 70.665,95.797 69.855,97.649 67.771 C 98.713 66.575,99.685 65.625,99.809 65.661 C 99.934 65.697,99.977 65.631,99.905 65.515 C 99.489 64.841,109.669 56.111,112.857 54.407 C 113.593 54.013,112.699 54.708,110.714 56.072 C 107.817 58.062,105.601 59.912,102.678 62.781 L 100.119 65.292 102.707 62.876 C 111.212 54.937,119.263 50.490,128.862 48.427 C 130.762 48.018,131.164 47.881,130.238 47.957 C 129.416 48.024,129.150 47.995,129.524 47.879 C 130.988 47.425,144.535 47.751,146.786 48.295 M146.786 47.857 C 147.427 48.020,147.439 48.039,146.905 48.043 C 146.577 48.046,146.042 47.962,145.714 47.857 C 144.914 47.601,145.779 47.601,146.786 47.857 M128.095 48.333 C 127.281 48.594,126.655 48.594,127.262 48.333 C 127.524 48.221,127.952 48.132,128.214 48.136 C 128.597 48.141,128.574 48.180,128.095 48.333 M148.690 48.333 C 148.991 48.462,149.035 48.538,148.810 48.538 C 148.613 48.538,148.238 48.446,147.976 48.333 C 147.676 48.204,147.632 48.129,147.857 48.129 C 148.054 48.129,148.429 48.221,148.690 48.333 M126.190 48.810 C 125.376 49.070,124.750 49.070,125.357 48.810 C 125.619 48.697,126.048 48.608,126.310 48.612 C 126.692 48.618,126.669 48.656,126.190 48.810 M150.804 48.955 C 151.424 49.167,151.889 49.380,151.839 49.431 C 151.789 49.481,151.167 49.316,150.457 49.064 C 149.747 48.812,149.282 48.598,149.422 48.589 C 149.562 48.579,150.184 48.744,150.804 48.955 M124.524 49.286 C 124.327 49.413,124.006 49.517,123.810 49.517 C 123.492 49.517,123.492 49.491,123.810 49.286 C 124.006 49.159,124.327 49.055,124.524 49.055 C 124.841 49.055,124.841 49.081,124.524 49.286 M123.095 49.762 C 122.899 49.889,122.577 49.993,122.381 49.993 C 122.063 49.993,122.063 49.967,122.381 49.762 C 122.577 49.635,122.899 49.531,123.095 49.531 C 123.413 49.531,123.413 49.557,123.095 49.762 M119.504 51.044 C 119.262 51.267,115.000 53.326,115.000 53.219 C 115.000 53.076,119.073 50.982,119.385 50.964 C 119.505 50.958,119.559 50.994,119.504 51.044 M114.762 53.446 C 114.762 53.508,114.414 53.729,113.988 53.937 L 113.214 54.314 113.810 53.829 C 114.383 53.362,114.762 53.209,114.762 53.446 M159.167 53.493 C 159.741 54.048,162.667 56.223,162.522 55.988 C 162.433 55.844,161.749 55.260,161.002 54.691 C 159.650 53.661,158.694 53.037,159.167 53.493 M165.119 58.571 C 166.424 59.881,167.545 60.952,167.610 60.952 C 167.676 60.952,166.662 59.881,165.357 58.571 C 164.053 57.262,162.932 56.190,162.866 56.190 C 162.801 56.190,163.814 57.262,165.119 58.571 M98.797 66.845 L 97.976 67.738 98.869 66.918 C 99.360 66.466,99.762 66.065,99.762 66.025 C 99.762 65.843,99.560 66.014,98.797 66.845 M97.130 68.750 L 96.310 69.643 97.202 68.822 C 97.693 68.371,98.095 67.969,98.095 67.929 C 98.095 67.748,97.894 67.919,97.130 68.750 M174.167 70.714 C 174.370 71.107,174.590 71.429,174.655 71.429 C 174.721 71.429,174.608 71.107,174.405 70.714 C 174.202 70.321,173.982 70.000,173.916 70.000 C 173.851 70.000,173.964 70.321,174.167 70.714 M179.737 84.410 C 180.144 85.688,180.245 85.846,180.117 85.007 C 180.048 84.553,179.883 84.074,179.751 83.941 C 179.590 83.780,179.585 83.934,179.737 84.410 M86.071 85.000 C 85.868 85.393,85.756 85.714,85.821 85.714 C 85.887 85.714,86.106 85.393,86.310 85.000 C 86.513 84.607,86.625 84.286,86.560 84.286 C 86.494 84.286,86.275 84.607,86.071 85.000 M180.279 86.190 C 180.291 86.809,180.666 87.825,180.674 87.262 C 180.678 87.000,180.589 86.571,180.476 86.310 C 180.351 86.018,180.274 85.972,180.279 86.190 M180.748 88.095 C 180.748 88.292,180.840 88.667,180.952 88.929 C 181.081 89.229,181.157 89.273,181.157 89.048 C 181.157 88.851,181.065 88.476,180.952 88.214 C 180.823 87.914,180.748 87.870,180.748 88.095 M181.025 89.662 C 181.104 89.803,181.295 90.660,181.450 91.567 C 181.605 92.473,181.820 93.643,181.926 94.167 L 182.121 95.119 182.029 94.048 C 181.868 92.166,181.409 89.889,181.142 89.643 C 180.967 89.482,180.929 89.488,181.025 89.662 M269.116 94.699 C 268.433 94.747,267.255 94.747,266.497 94.700 C 265.739 94.653,266.298 94.613,267.738 94.613 C 269.179 94.612,269.799 94.651,269.116 94.699 M264.742 94.849 C 264.688 94.898,263.946 94.996,263.095 95.068 C 262.120 95.151,261.812 95.129,262.262 95.009 C 262.989 94.815,264.923 94.690,264.742 94.849 M273.452 94.986 C 274.706 95.246,273.580 95.268,272.143 95.012 C 271.339 94.869,271.250 94.817,271.786 94.805 C 272.179 94.797,272.929 94.878,273.452 94.986 M274.574 95.330 C 275.583 95.356,276.494 95.463,276.598 95.568 C 276.701 95.673,276.250 95.700,275.595 95.627 C 274.940 95.555,274.619 95.552,274.881 95.620 C 275.143 95.688,276.429 96.013,277.738 96.342 C 280.921 97.142,284.901 98.719,288.810 100.728 C 290.577 101.636,291.822 102.224,291.575 102.033 C 291.328 101.842,290.276 101.244,289.236 100.703 C 288.196 100.162,287.390 99.674,287.445 99.618 C 287.819 99.245,294.939 103.768,298.547 106.670 C 301.589 109.117,307.899 115.699,306.190 114.643 C 305.764 114.379,305.939 114.677,306.484 115.142 C 307.010 115.591,307.012 115.590,306.667 115.119 C 306.321 114.648,306.323 114.647,306.849 115.096 C 307.375 115.545,307.603 116.118,307.143 115.833 C 306.717 115.570,306.892 115.867,307.436 116.332 C 307.963 116.781,307.964 116.781,307.619 116.310 C 307.274 115.838,307.275 115.838,307.802 116.287 C 308.327 116.735,308.556 117.308,308.095 117.024 C 307.708 116.784,307.824 117.058,308.260 117.411 C 308.607 117.693,308.634 117.689,308.452 117.381 C 308.271 117.073,308.297 117.069,308.645 117.351 C 309.109 117.727,309.195 118.212,308.750 117.945 C 308.548 117.823,308.557 117.895,308.779 118.169 C 309.160 118.638,309.396 118.708,309.135 118.274 C 309.014 118.072,309.085 118.081,309.359 118.303 C 309.824 118.680,309.908 119.160,309.464 118.904 C 309.291 118.805,309.250 118.824,309.365 118.950 C 309.474 119.069,309.680 119.167,309.821 119.167 C 309.963 119.167,310.129 119.316,310.190 119.497 C 310.265 119.724,310.196 119.768,309.971 119.638 C 309.777 119.525,309.724 119.536,309.841 119.664 C 309.950 119.783,310.156 119.881,310.298 119.881 C 310.439 119.881,310.605 120.030,310.666 120.212 C 310.741 120.438,310.672 120.482,310.448 120.352 C 310.254 120.240,310.200 120.251,310.317 120.378 C 310.427 120.498,310.632 120.595,310.774 120.595 C 310.916 120.595,311.081 120.744,311.142 120.926 C 311.217 121.152,311.148 121.197,310.924 121.066 C 310.730 120.954,310.677 120.965,310.794 121.093 C 310.903 121.212,311.108 121.310,311.250 121.310 C 311.392 121.310,311.558 121.458,311.618 121.640 C 311.694 121.867,311.625 121.911,311.400 121.781 C 311.206 121.668,311.153 121.679,311.270 121.807 C 311.379 121.926,311.584 122.024,311.726 122.024 C 311.868 122.024,312.034 122.173,312.094 122.355 C 312.168 122.575,312.103 122.622,311.899 122.496 C 311.697 122.372,311.652 122.402,311.765 122.586 C 311.860 122.739,312.033 122.806,312.149 122.734 C 312.265 122.662,312.526 122.923,312.728 123.314 C 313.166 124.162,313.190 124.372,312.820 124.144 C 312.649 124.038,312.610 124.079,312.718 124.253 C 312.813 124.406,312.985 124.473,313.102 124.401 C 313.218 124.329,313.478 124.590,313.680 124.980 C 314.099 125.790,314.166 126.249,313.788 125.714 C 313.563 125.397,313.546 125.397,313.633 125.714 C 313.686 125.911,313.862 126.071,314.023 126.071 C 314.404 126.071,316.010 129.029,315.853 129.441 C 315.786 129.614,315.861 129.731,316.020 129.700 C 316.181 129.668,316.302 129.877,316.292 130.167 C 316.282 130.455,316.354 130.641,316.452 130.581 C 316.699 130.428,317.900 133.116,317.755 133.495 C 317.689 133.665,317.753 133.778,317.895 133.747 C 318.038 133.716,318.209 133.839,318.275 134.021 C 318.355 134.240,318.294 134.289,318.095 134.167 C 317.897 134.044,317.836 134.093,317.916 134.312 C 317.982 134.494,318.147 134.619,318.284 134.590 C 318.421 134.561,318.869 135.346,319.281 136.334 C 320.364 138.936,320.356 138.910,320.040 138.715 C 319.887 138.621,319.762 138.657,319.762 138.795 C 319.762 138.934,319.908 139.048,320.087 139.048 C 320.265 139.048,320.587 139.507,320.801 140.067 C 321.234 141.201,321.306 141.738,320.952 141.190 C 320.671 140.755,320.671 141.131,320.952 141.786 C 321.090 142.107,321.164 142.145,321.177 141.905 C 321.205 141.418,321.659 142.091,321.659 142.619 C 321.659 142.937,321.634 142.937,321.429 142.619 C 321.147 142.184,321.147 142.560,321.429 143.214 C 321.566 143.535,321.640 143.574,321.654 143.333 C 321.681 142.847,322.136 143.520,322.136 144.048 C 322.136 144.365,322.110 144.365,321.905 144.048 C 321.778 143.851,321.672 143.801,321.670 143.935 C 321.668 144.070,321.881 144.363,322.143 144.588 C 322.405 144.812,322.617 145.184,322.615 145.414 C 322.612 145.774,322.577 145.783,322.370 145.476 C 322.063 145.023,322.210 145.663,323.240 149.286 C 323.668 150.792,324.034 151.810,324.054 151.548 C 324.074 151.286,324.293 151.821,324.540 152.738 C 325.010 154.482,325.128 155.495,324.762 154.643 C 324.426 153.861,324.496 154.486,325.098 157.619 C 325.412 159.256,325.811 161.667,325.986 162.976 C 326.237 164.861,326.331 165.184,326.438 164.524 C 326.559 163.776,326.593 163.845,326.764 165.193 C 326.869 166.020,326.890 166.761,326.811 166.840 C 326.732 166.919,326.667 166.627,326.667 166.190 C 326.667 165.754,326.601 165.462,326.521 165.542 C 326.441 165.622,326.575 167.542,326.819 169.808 C 327.183 173.197,327.262 175.830,327.262 184.643 C 327.262 195.841,327.135 197.937,325.939 206.541 C 325.463 209.960,325.396 210.895,325.714 209.643 L 325.896 208.929 325.896 209.643 C 325.896 210.036,325.814 210.679,325.714 211.071 L 325.533 211.786 325.477 211.071 C 325.425 210.406,325.408 210.423,325.224 211.310 C 324.961 212.581,324.970 213.455,325.238 212.619 L 325.429 212.024 325.429 212.619 C 325.429 212.946,325.343 213.482,325.238 213.810 L 325.047 214.405 324.999 213.810 C 324.946 213.150,324.403 215.409,324.198 217.143 C 324.108 217.908,324.130 218.044,324.274 217.619 L 324.476 217.024 324.476 217.619 C 324.476 217.946,324.391 218.482,324.286 218.810 L 324.095 219.405 324.050 218.810 C 324.025 218.482,323.803 219.071,323.557 220.119 C 322.993 222.524,323.004 223.306,323.571 221.071 C 323.804 220.155,324.004 219.619,324.016 219.881 C 324.045 220.547,323.148 223.798,323.095 223.214 C 323.048 222.687,322.526 224.425,322.299 225.866 C 322.197 226.512,322.218 226.644,322.370 226.310 C 322.488 226.048,322.593 225.971,322.602 226.138 C 322.628 226.600,321.380 231.460,321.266 231.345 C 321.211 231.290,321.391 230.365,321.666 229.288 C 321.941 228.212,322.116 227.208,322.054 227.058 C 321.992 226.906,321.934 226.949,321.924 227.154 C 321.913 227.357,321.309 229.752,320.581 232.477 C 319.853 235.203,319.306 237.480,319.364 237.539 C 319.422 237.597,319.601 237.097,319.762 236.429 C 319.922 235.760,320.100 235.258,320.156 235.315 C 320.212 235.371,320.075 236.147,319.851 237.040 C 319.564 238.180,319.396 238.529,319.286 238.215 C 319.165 237.869,319.070 237.995,318.876 238.762 C 318.737 239.310,318.719 239.699,318.835 239.627 C 318.952 239.555,319.048 239.323,319.048 239.113 C 319.048 238.902,319.109 238.791,319.184 238.866 C 319.321 239.004,317.679 244.779,317.440 245.000 C 317.369 245.065,317.381 244.851,317.467 244.524 C 317.826 243.153,317.889 242.690,317.640 243.253 C 317.192 244.264,316.692 246.203,316.915 246.065 C 317.040 245.988,317.143 245.752,317.143 245.542 C 317.143 245.331,317.202 245.218,317.273 245.289 C 317.494 245.510,317.112 246.654,316.836 246.599 C 316.693 246.571,316.537 246.762,316.489 247.024 C 316.418 247.415,316.447 247.436,316.650 247.143 C 316.786 246.946,316.899 246.871,316.901 246.976 C 316.908 247.321,315.226 252.949,315.077 253.083 C 314.996 253.155,315.000 252.946,315.086 252.619 C 315.481 251.110,315.535 250.841,315.416 250.952 C 315.280 251.081,313.569 256.772,313.575 257.078 C 313.577 257.179,313.683 257.101,313.810 256.905 C 314.223 256.265,314.062 256.999,313.274 259.350 C 312.848 260.620,312.405 261.651,312.289 261.642 C 312.047 261.624,311.674 262.145,311.674 262.500 C 311.674 262.631,311.778 262.577,311.905 262.381 C 312.312 261.751,312.158 262.369,311.670 263.327 C 311.410 263.836,311.072 264.331,310.919 264.425 C 310.745 264.533,310.705 264.494,310.811 264.323 C 311.068 263.905,310.816 263.994,310.446 264.450 C 310.224 264.724,310.214 264.796,310.417 264.675 C 310.928 264.368,310.742 264.891,310.139 265.457 C 309.555 266.006,309.310 266.070,306.786 266.325 C 305.085 266.497,303.260 266.151,293.571 263.815 C 282.781 261.214,271.382 259.252,245.119 255.476 C 233.110 253.750,229.377 253.132,227.970 252.637 C 227.217 252.372,226.527 252.201,226.436 252.257 C 226.217 252.393,224.524 250.986,224.524 250.668 C 224.524 250.523,224.698 250.555,224.940 250.745 C 225.318 251.040,225.326 251.032,225.033 250.657 C 224.854 250.430,224.619 250.298,224.511 250.365 C 223.763 250.827,223.013 246.983,222.395 239.524 C 221.856 233.011,221.635 230.502,221.417 228.412 C 221.214 226.451,221.138 223.158,221.318 224.048 C 221.357 224.244,221.512 226.012,221.661 227.976 C 221.810 229.940,222.028 232.512,222.146 233.690 C 222.263 234.869,222.430 236.830,222.516 238.049 C 222.602 239.268,222.723 240.213,222.786 240.150 C 222.894 240.042,222.664 236.695,222.147 230.833 C 222.019 229.393,221.808 226.982,221.677 225.476 C 220.574 212.818,220.482 211.972,220.587 215.476 C 220.704 219.361,220.490 217.465,219.516 205.952 C 219.377 204.315,219.161 201.994,219.037 200.793 C 218.912 199.592,218.824 198.038,218.843 197.340 C 218.882 195.830,219.167 198.712,220.024 209.286 C 220.168 211.054,220.340 212.554,220.407 212.619 C 220.535 212.744,220.361 209.861,219.996 205.833 C 219.729 202.879,219.384 198.927,219.041 194.881 C 218.896 193.179,218.678 190.799,218.556 189.593 C 217.633 180.497,219.002 158.727,221.229 147.071 C 221.500 145.656,221.673 144.450,221.614 144.391 C 221.505 144.283,220.737 148.194,220.137 151.905 C 219.958 153.018,219.799 153.619,219.786 153.242 C 219.744 152.046,220.756 146.572,221.948 141.548 C 222.683 138.450,223.198 136.951,222.970 138.571 C 222.852 139.407,222.952 139.262,223.342 138.028 C 223.475 137.610,223.468 137.417,223.324 137.506 C 222.917 137.757,223.076 137.035,224.142 133.786 C 225.356 130.085,225.708 129.254,225.984 129.425 C 226.095 129.493,226.120 129.380,226.042 129.175 C 225.885 128.768,226.087 128.189,227.327 125.476 C 227.776 124.494,228.240 123.443,228.357 123.140 C 228.474 122.838,228.677 122.656,228.806 122.736 C 228.936 122.816,228.988 122.742,228.923 122.570 C 228.769 122.169,230.444 119.000,230.720 119.170 C 230.835 119.241,231.047 119.055,231.192 118.757 C 231.444 118.237,231.439 118.234,231.085 118.676 C 230.881 118.931,230.714 119.015,230.714 118.863 C 230.714 118.473,232.116 116.310,232.369 116.310 C 232.485 116.310,232.669 116.212,232.778 116.093 C 232.895 115.965,232.842 115.954,232.648 116.066 C 232.423 116.197,232.354 116.152,232.429 115.926 C 232.490 115.744,232.656 115.595,232.798 115.595 C 232.939 115.595,233.145 115.498,233.254 115.378 C 233.371 115.251,233.318 115.240,233.124 115.352 C 232.899 115.482,232.830 115.438,232.906 115.212 C 232.966 115.030,233.132 114.881,233.274 114.881 C 233.416 114.881,233.621 114.783,233.730 114.664 C 233.845 114.538,233.804 114.519,233.631 114.619 C 233.187 114.874,233.271 114.394,233.736 114.017 C 234.084 113.735,234.110 113.740,233.929 114.048 C 233.747 114.356,233.773 114.360,234.121 114.078 C 234.574 113.710,234.667 113.455,234.255 113.710 C 234.090 113.811,234.032 113.748,234.106 113.545 C 234.172 113.363,234.336 113.238,234.471 113.266 C 234.606 113.295,234.860 113.134,235.037 112.909 C 235.326 112.540,235.316 112.532,234.940 112.827 C 234.338 113.299,234.427 112.778,235.041 112.239 C 235.325 111.990,235.480 111.920,235.384 112.083 C 235.131 112.516,235.364 112.448,235.745 111.978 C 235.967 111.704,235.976 111.633,235.774 111.754 C 235.270 112.057,235.445 111.529,236.008 111.049 C 236.441 110.680,236.479 110.673,236.217 111.012 C 235.712 111.664,236.044 111.500,236.685 110.781 C 237.002 110.425,237.074 110.277,236.845 110.453 C 236.616 110.629,236.429 110.677,236.429 110.561 C 236.429 110.275,241.725 105.079,243.214 103.903 C 244.738 102.700,245.392 102.286,244.301 103.214 C 242.755 104.530,242.010 105.304,243.226 104.331 C 248.039 100.479,253.670 97.594,259.405 96.040 C 260.844 95.650,261.196 95.498,260.476 95.578 C 259.593 95.676,259.508 95.654,259.994 95.455 C 260.317 95.323,260.960 95.270,261.422 95.338 C 261.884 95.406,262.905 95.365,263.690 95.246 C 264.476 95.127,266.833 95.087,268.929 95.156 C 271.024 95.225,273.564 95.303,274.574 95.330 M258.810 95.952 C 257.995 96.213,257.369 96.213,257.976 95.952 C 258.238 95.840,258.667 95.751,258.929 95.755 C 259.311 95.760,259.288 95.799,258.810 95.952 M279.131 96.219 C 279.635 96.352,280.006 96.502,279.954 96.554 C 279.841 96.667,277.073 95.963,276.905 95.778 C 276.785 95.646,277.447 95.777,279.131 96.219 M257.381 96.287 C 257.381 96.431,255.172 97.157,255.064 97.048 C 255.012 96.996,255.432 96.791,255.997 96.591 C 257.110 96.198,257.381 96.138,257.381 96.287 M283.007 97.528 C 283.514 97.740,284.185 98.011,284.497 98.130 C 284.810 98.249,285.016 98.397,284.954 98.459 C 284.853 98.560,281.924 97.466,281.687 97.238 C 281.457 97.018,282.150 97.170,283.007 97.528 M253.552 97.710 C 253.310 97.932,250.000 99.517,250.000 99.411 C 250.000 99.267,253.124 97.647,253.433 97.631 C 253.553 97.624,253.606 97.660,253.552 97.710 M286.429 99.048 C 286.887 99.299,287.155 99.504,287.024 99.504 C 286.893 99.504,286.411 99.299,285.952 99.048 C 285.494 98.797,285.226 98.591,285.357 98.591 C 285.488 98.591,285.970 98.797,286.429 99.048 M249.631 99.724 C 249.289 100.026,247.475 101.063,247.667 100.846 C 247.974 100.500,249.401 99.547,249.631 99.535 C 249.774 99.528,249.774 99.597,249.631 99.724 M247.381 101.040 C 247.381 101.088,246.952 101.411,246.429 101.757 C 245.905 102.104,245.476 102.336,245.476 102.274 C 245.476 102.169,247.171 100.952,247.317 100.952 C 247.352 100.952,247.381 100.992,247.381 101.040 M292.143 102.458 C 292.143 102.516,292.862 103.031,293.741 103.603 C 294.620 104.175,296.093 105.210,297.015 105.902 C 297.971 106.622,298.288 106.798,297.752 106.314 C 296.558 105.235,292.143 102.200,292.143 102.458 M77.617 106.310 C 77.358 107.095,77.205 107.417,77.277 107.024 C 77.513 105.733,77.920 104.400,78.005 104.643 C 78.051 104.774,77.876 105.524,77.617 106.310 M239.519 107.560 L 237.262 109.881 239.583 107.624 C 241.739 105.527,242.013 105.238,241.841 105.238 C 241.805 105.238,240.761 106.283,239.519 107.560 M298.810 107.184 C 298.810 107.234,300.068 108.444,301.607 109.872 C 303.146 111.300,303.976 112.011,303.452 111.452 C 302.430 110.360,298.810 107.032,298.810 107.184 M77.007 108.673 C 76.919 109.022,76.802 109.262,76.746 109.206 C 76.689 109.150,76.715 108.818,76.803 108.469 C 76.890 108.120,77.008 107.881,77.064 107.937 C 77.120 107.993,77.094 108.325,77.007 108.673 M76.518 110.685 C 76.434 111.103,76.316 111.395,76.255 111.335 C 76.195 111.274,76.219 110.888,76.310 110.476 C 76.524 109.500,76.716 109.692,76.518 110.685 M305.000 113.452 C 305.444 113.911,305.861 114.286,305.927 114.286 C 305.992 114.286,305.682 113.911,305.238 113.452 C 304.794 112.994,304.377 112.619,304.311 112.619 C 304.246 112.619,304.556 112.994,305.000 113.452 M75.595 114.762 C 75.504 115.303,75.375 115.693,75.310 115.627 C 75.244 115.562,75.266 115.065,75.357 114.524 C 75.449 113.982,75.577 113.593,75.643 113.658 C 75.708 113.724,75.687 114.220,75.595 114.762 M74.632 119.632 C 74.541 120.239,74.418 120.688,74.358 120.628 C 74.299 120.569,74.325 120.023,74.416 119.416 C 74.507 118.808,74.630 118.360,74.689 118.420 C 74.749 118.479,74.723 119.025,74.632 119.632 M74.156 122.489 C 74.065 123.097,73.937 123.540,73.871 123.474 C 73.806 123.409,73.827 122.858,73.918 122.251 C 74.009 121.644,74.137 121.200,74.202 121.266 C 74.268 121.331,74.247 121.882,74.156 122.489 M73.681 125.586 C 73.589 126.323,73.464 126.877,73.404 126.817 C 73.344 126.756,73.369 126.104,73.462 125.366 C 73.554 124.629,73.678 124.075,73.739 124.136 C 73.799 124.196,73.773 124.849,73.681 125.586 M227.305 126.082 C 226.745 127.255,226.824 127.455,227.409 126.347 C 227.674 125.843,227.849 125.389,227.798 125.338 C 227.747 125.286,227.524 125.621,227.305 126.082 M73.190 129.143 C 73.101 130.014,72.977 130.675,72.914 130.612 C 72.851 130.549,72.875 129.788,72.968 128.921 C 73.061 128.053,73.186 127.392,73.245 127.451 C 73.304 127.511,73.280 128.272,73.190 129.143 M72.707 133.361 C 72.615 134.459,72.493 135.215,72.434 135.040 C 72.306 134.657,72.619 131.111,72.768 131.260 C 72.826 131.318,72.799 132.264,72.707 133.361 M224.034 134.917 C 223.902 135.264,223.829 135.653,223.871 135.781 C 223.914 135.909,224.068 135.625,224.214 135.150 C 224.520 134.151,224.389 133.982,224.034 134.917 M318.837 136.310 C 318.841 136.440,319.051 136.976,319.303 137.500 C 319.555 138.024,319.694 138.185,319.613 137.857 C 319.445 137.183,318.824 135.945,318.837 136.310 M320.278 140.012 C 320.417 140.412,320.575 140.694,320.629 140.640 C 320.747 140.523,320.298 139.286,320.137 139.286 C 320.075 139.286,320.139 139.613,320.278 140.012 M221.923 142.637 C 221.777 143.320,221.702 143.924,221.758 143.980 C 221.813 144.035,221.978 143.522,222.125 142.839 C 222.271 142.156,222.345 141.552,222.290 141.496 C 222.235 141.441,222.070 141.954,221.923 142.637 M181.489 144.167 C 181.491 144.690,181.540 144.877,181.597 144.581 C 181.654 144.284,181.652 143.856,181.592 143.628 C 181.533 143.401,181.486 143.643,181.489 144.167 M180.965 147.155 C 180.809 148.222,180.729 149.142,180.788 149.201 C 180.847 149.259,181.022 148.435,181.178 147.368 C 181.334 146.302,181.413 145.382,181.355 145.323 C 181.296 145.265,181.121 146.089,180.965 147.155 M323.062 147.143 C 323.062 147.368,322.986 147.324,322.857 147.024 C 322.745 146.762,322.653 146.387,322.653 146.190 C 322.653 145.965,322.728 146.009,322.857 146.310 C 322.970 146.571,323.062 146.946,323.062 147.143 M323.538 148.810 C 323.538 149.035,323.462 148.991,323.333 148.690 C 323.221 148.429,323.129 148.054,323.129 147.857 C 323.129 147.632,323.204 147.676,323.333 147.976 C 323.446 148.238,323.538 148.613,323.538 148.810 M324.014 150.476 C 324.014 150.701,323.939 150.657,323.810 150.357 C 323.697 150.095,323.605 149.720,323.605 149.524 C 323.605 149.299,323.681 149.343,323.810 149.643 C 323.922 149.905,324.014 150.280,324.014 150.476 M180.271 151.556 C 180.095 152.730,179.893 154.012,179.822 154.405 C 179.751 154.798,179.753 155.065,179.826 155.000 C 180.023 154.823,180.761 150.301,180.670 149.829 C 180.627 149.604,180.448 150.382,180.271 151.556 M324.095 152.500 C 324.095 152.762,324.181 153.244,324.286 153.571 C 324.437 154.043,324.476 154.068,324.476 153.690 C 324.476 153.429,324.391 152.946,324.286 152.619 C 324.135 152.148,324.095 152.123,324.095 152.500 M219.552 155.970 C 219.384 157.423,219.342 157.542,219.317 156.637 C 219.286 155.540,219.510 153.954,219.672 154.116 C 219.719 154.163,219.665 154.997,219.552 155.970 M179.074 158.262 C 178.765 159.938,178.326 162.200,178.099 163.288 C 177.871 164.377,177.768 165.180,177.868 165.074 C 177.969 164.968,178.333 163.381,178.678 161.548 C 179.023 159.714,179.422 157.666,179.564 156.997 C 179.707 156.327,179.781 155.652,179.729 155.497 C 179.677 155.342,179.383 156.586,179.074 158.262 M325.420 157.143 C 325.420 157.674,325.400 157.661,325.238 157.024 C 325.138 156.631,325.056 156.042,325.056 155.714 C 325.056 155.183,325.076 155.196,325.238 155.833 C 325.338 156.226,325.420 156.815,325.420 157.143 M218.942 162.295 C 218.739 164.634,218.539 167.244,218.499 168.095 L 218.425 169.643 218.384 167.857 C 218.362 166.875,218.499 164.357,218.689 162.262 C 218.878 160.167,219.037 158.301,219.041 158.115 C 219.044 157.930,219.107 157.837,219.180 157.910 C 219.253 157.983,219.146 159.957,218.942 162.295 M325.900 159.643 L 325.896 160.357 325.714 159.643 C 325.614 159.250,325.531 158.661,325.528 158.333 L 325.524 157.738 325.714 158.333 C 325.819 158.661,325.903 159.250,325.900 159.643 M326.373 162.619 L 326.374 163.452 326.177 162.500 C 326.068 161.976,325.986 161.280,325.994 160.952 C 326.017 160.007,326.372 161.569,326.373 162.619 M72.691 163.214 C 72.782 164.899,72.762 165.247,72.621 164.405 C 72.417 163.181,72.310 160.557,72.472 160.734 C 72.521 160.789,72.620 161.905,72.691 163.214 M73.283 169.286 C 73.274 170.053,73.259 170.034,73.083 169.048 C 72.978 168.458,72.899 167.548,72.907 167.024 C 72.920 166.096,72.926 166.102,73.106 167.262 C 73.208 167.917,73.288 168.827,73.283 169.286 M327.327 170.952 L 327.314 172.024 327.133 170.714 C 327.033 169.994,326.956 168.976,326.960 168.452 C 326.968 167.533,326.975 167.541,327.154 168.690 C 327.256 169.345,327.334 170.363,327.327 170.952 M218.217 180.179 C 218.215 185.908,218.145 190.006,218.059 189.286 C 217.775 186.882,217.893 169.762,218.194 169.762 C 218.208 169.762,218.218 174.449,218.217 180.179 M73.762 173.214 C 73.753 173.741,73.700 173.647,73.559 172.857 C 73.454 172.268,73.374 171.464,73.381 171.071 C 73.390 170.545,73.443 170.638,73.584 171.429 C 73.688 172.018,73.769 172.821,73.762 173.214 M74.244 176.667 C 74.221 177.612,73.866 176.050,73.865 175.000 L 73.864 174.167 74.061 175.119 C 74.170 175.643,74.252 176.339,74.244 176.667 M74.721 180.000 C 74.712 180.382,74.637 180.254,74.510 179.643 C 74.402 179.119,74.319 178.423,74.327 178.095 C 74.336 177.713,74.411 177.841,74.537 178.452 C 74.646 178.976,74.728 179.673,74.721 180.000 M174.914 178.145 C 174.834 178.445,174.778 178.905,174.789 179.167 C 174.800 179.429,174.908 179.225,175.028 178.714 C 175.260 177.725,175.161 177.226,174.914 178.145 M174.315 181.071 C 174.295 181.333,174.224 181.815,174.157 182.143 L 174.034 182.738 174.289 182.154 C 174.429 181.833,174.501 181.351,174.447 181.083 C 174.353 180.608,174.350 180.608,174.315 181.071 M75.196 183.214 C 75.174 183.946,74.818 182.382,74.817 181.548 C 74.817 180.947,74.848 180.985,75.014 181.786 C 75.122 182.310,75.204 182.952,75.196 183.214 M76.149 189.286 C 76.141 189.668,76.065 189.539,75.939 188.929 C 75.830 188.405,75.748 187.708,75.755 187.381 C 75.764 186.999,75.840 187.127,75.966 187.738 C 76.074 188.262,76.157 188.958,76.149 189.286 M218.638 193.452 C 218.724 195.213,218.702 195.681,218.570 194.881 C 218.372 193.673,218.260 190.552,218.421 190.734 C 218.470 190.789,218.567 192.012,218.638 193.452 M77.087 194.762 C 77.087 195.293,77.067 195.280,76.905 194.643 C 76.805 194.250,76.723 193.661,76.723 193.333 C 76.723 192.802,76.743 192.815,76.905 193.452 C 77.005 193.845,77.087 194.435,77.087 194.762 M327.264 199.697 C 327.173 200.669,327.049 201.414,326.987 201.352 C 326.926 201.291,326.957 200.292,327.056 199.132 C 327.155 197.973,327.280 197.228,327.333 197.477 C 327.386 197.727,327.356 198.726,327.264 199.697 M78.039 200.238 C 78.039 200.769,78.019 200.756,77.857 200.119 C 77.757 199.726,77.675 199.137,77.675 198.810 C 77.675 198.279,77.695 198.291,77.857 198.929 C 77.957 199.321,78.039 199.911,78.039 200.238 M326.791 203.965 C 326.699 204.817,326.573 205.462,326.510 205.399 C 326.447 205.336,326.473 204.497,326.569 203.535 C 326.665 202.573,326.791 201.928,326.850 202.101 C 326.908 202.275,326.882 203.114,326.791 203.965 M78.991 205.714 C 78.991 206.245,78.972 206.232,78.810 205.595 C 78.710 205.202,78.628 204.613,78.628 204.286 C 78.628 203.755,78.647 203.768,78.810 204.405 C 78.909 204.798,78.991 205.387,78.991 205.714 M326.310 207.381 C 326.216 208.183,326.091 208.790,326.032 208.730 C 325.972 208.670,325.997 207.964,326.088 207.160 C 326.179 206.356,326.304 205.749,326.366 205.811 C 326.428 205.873,326.403 206.579,326.310 207.381 M167.619 207.813 C 167.619 208.062,165.872 209.049,165.444 209.042 C 165.265 209.040,165.561 208.836,166.102 208.591 C 166.642 208.346,167.157 208.027,167.247 207.882 C 167.438 207.572,167.619 207.539,167.619 207.813 M150.000 209.296 C 149.280 209.395,147.726 209.467,146.548 209.454 L 144.405 209.432 146.786 209.286 C 150.471 209.060,151.678 209.064,150.000 209.296 M164.167 209.299 C 163.643 209.408,160.536 209.479,157.262 209.457 L 151.310 209.417 157.381 209.286 C 160.720 209.213,163.827 209.143,164.286 209.128 L 165.119 209.102 164.167 209.299 M141.071 209.773 C 139.762 209.867,137.726 209.936,136.548 209.926 L 134.405 209.908 136.786 209.762 C 138.095 209.682,140.131 209.613,141.310 209.609 L 143.452 209.602 141.071 209.773 M131.310 210.251 C 130.131 210.347,128.310 210.417,127.262 210.406 L 125.357 210.386 127.500 210.238 C 128.679 210.157,130.500 210.087,131.548 210.083 L 133.452 210.075 131.310 210.251 M122.976 210.722 C 122.060 210.816,120.613 210.888,119.762 210.881 L 118.214 210.868 119.881 210.714 C 120.798 210.630,122.244 210.558,123.095 210.556 L 124.643 210.551 122.976 210.722 M116.190 211.199 C 115.339 211.295,114.161 211.368,113.571 211.362 C 112.517 211.351,112.520 211.348,113.810 211.190 C 114.530 211.102,115.708 211.029,116.429 211.027 L 117.738 211.025 116.190 211.199 M110.714 211.677 C 109.994 211.776,108.976 211.852,108.452 211.845 L 107.500 211.833 108.571 211.667 C 109.161 211.575,110.179 211.499,110.833 211.498 L 112.024 211.496 110.714 211.677 M106.071 212.154 C 105.417 212.256,104.506 212.333,104.048 212.324 C 102.869 212.303,104.960 211.978,106.310 211.972 C 107.210 211.969,107.197 211.978,106.071 212.154 M101.786 212.630 C 101.131 212.732,100.220 212.809,99.762 212.801 C 98.584 212.779,100.674 212.454,102.024 212.449 C 102.925 212.445,102.912 212.455,101.786 212.630 M97.381 213.107 C 96.792 213.212,95.881 213.290,95.357 213.280 L 94.405 213.262 95.476 213.095 C 96.065 213.004,96.976 212.926,97.500 212.923 L 98.452 212.917 97.381 213.107 M92.738 213.582 C 92.083 213.684,91.065 213.760,90.476 213.751 L 89.405 213.735 90.595 213.571 C 91.250 213.482,92.268 213.406,92.857 213.403 L 93.929 213.397 92.738 213.582 M87.917 213.984 C 87.360 214.034,86.449 214.034,85.893 213.984 C 85.336 213.934,85.792 213.893,86.905 213.893 C 88.018 213.893,88.473 213.934,87.917 213.984 M324.892 215.844 C 324.801 216.451,324.673 216.895,324.607 216.829 C 324.542 216.764,324.563 216.213,324.654 215.606 C 324.745 214.999,324.873 214.555,324.938 214.621 C 325.004 214.686,324.983 215.237,324.892 215.844 M221.019 221.071 C 221.105 222.832,221.083 223.300,220.951 222.500 C 220.753 221.292,220.641 218.172,220.802 218.353 C 220.851 218.408,220.948 219.631,221.019 221.071 M155.904 223.272 C 154.895 223.317,153.181 223.317,152.095 223.273 C 151.008 223.228,151.833 223.192,153.929 223.192 C 156.024 223.191,156.913 223.227,155.904 223.272 M147.738 223.579 C 146.821 223.673,145.429 223.745,144.643 223.739 L 143.214 223.727 144.762 223.571 C 145.613 223.486,147.006 223.414,147.857 223.412 L 149.405 223.408 147.738 223.579 M162.381 223.571 C 163.273 223.701,162.856 223.722,161.071 223.636 C 159.631 223.566,158.408 223.470,158.353 223.421 C 158.180 223.267,161.021 223.373,162.381 223.571 M162.381 224.056 C 163.363 224.195,164.370 224.339,164.619 224.375 C 165.712 224.534,166.759 226.418,167.017 228.690 C 167.112 229.523,167.100 229.553,166.924 228.929 C 166.814 228.536,166.710 228.369,166.695 228.557 C 166.657 229.020,168.345 237.231,168.510 237.381 C 168.581 237.446,168.580 237.179,168.506 236.786 C 168.109 234.655,168.045 234.179,168.175 234.298 C 168.289 234.402,169.725 241.216,170.982 247.619 C 171.316 249.320,171.463 250.780,171.210 249.881 C 171.026 249.228,171.008 249.218,171.004 249.762 C 170.998 250.590,171.365 251.740,171.422 251.071 L 171.462 250.595 171.667 251.071 C 171.779 251.333,171.866 251.869,171.860 252.262 L 171.848 252.976 171.667 252.262 C 171.503 251.620,171.484 251.608,171.480 252.143 C 171.475 252.911,171.846 254.144,171.881 253.472 C 171.965 251.861,173.077 257.424,173.263 260.386 C 173.400 262.569,172.986 269.421,172.624 270.961 L 172.430 271.786 172.379 271.071 C 172.348 270.629,172.206 271.036,172.004 272.143 C 171.826 273.125,171.431 274.912,171.128 276.114 C 170.825 277.316,170.662 278.247,170.765 278.183 C 171.066 277.997,170.985 278.461,170.461 279.932 C 169.643 282.223,169.230 283.089,169.017 282.957 C 168.906 282.889,168.871 282.978,168.939 283.155 C 169.122 283.632,168.338 285.393,168.108 285.021 C 167.969 284.795,167.887 284.817,167.774 285.111 C 167.687 285.339,167.722 285.440,167.860 285.355 C 168.315 285.074,168.085 285.670,166.999 287.587 C 166.396 288.651,165.814 289.467,165.706 289.400 C 165.598 289.333,165.432 289.403,165.337 289.557 C 165.223 289.741,165.268 289.771,165.470 289.647 C 165.674 289.521,165.739 289.568,165.666 289.788 C 165.605 289.970,165.439 290.119,165.298 290.119 C 165.156 290.119,164.950 290.217,164.841 290.336 C 164.724 290.464,164.777 290.475,164.971 290.362 C 165.196 290.232,165.265 290.276,165.190 290.503 C 165.129 290.684,164.963 290.833,164.821 290.833 C 164.680 290.833,164.474 290.931,164.365 291.050 C 164.248 291.178,164.301 291.189,164.495 291.076 C 164.721 290.945,164.786 290.989,164.704 291.217 C 164.637 291.399,164.473 291.524,164.338 291.496 C 164.204 291.467,163.949 291.628,163.773 291.853 C 163.484 292.222,163.493 292.230,163.869 291.935 C 164.472 291.463,164.382 291.984,163.769 292.523 C 163.484 292.772,163.330 292.842,163.426 292.679 C 163.678 292.246,163.446 292.314,163.065 292.784 C 162.788 293.126,162.788 293.157,163.067 292.989 C 163.295 292.851,163.358 292.892,163.275 293.122 C 163.209 293.304,163.045 293.429,162.910 293.400 C 162.775 293.372,162.521 293.533,162.344 293.758 C 162.055 294.127,162.065 294.135,162.440 293.840 C 162.670 293.660,162.854 293.607,162.851 293.721 C 162.843 293.974,161.248 295.714,161.024 295.714 C 160.935 295.714,161.171 295.393,161.548 295.000 C 161.924 294.607,162.179 294.286,162.115 294.286 C 162.051 294.286,161.629 294.677,161.178 295.155 C 160.726 295.633,160.505 295.939,160.686 295.836 C 160.911 295.707,160.976 295.752,160.894 295.979 C 160.828 296.161,160.653 296.283,160.506 296.250 C 160.359 296.217,160.265 296.324,160.298 296.488 C 160.330 296.652,160.223 296.759,160.060 296.726 C 159.896 296.693,159.789 296.801,159.821 296.964 C 159.854 297.128,159.739 297.232,159.566 297.196 C 159.392 297.160,159.311 297.229,159.385 297.348 C 159.538 297.596,157.652 299.257,155.714 300.581 C 154.323 301.533,154.580 301.293,157.297 299.107 C 158.233 298.354,158.962 297.699,158.917 297.651 C 158.871 297.604,158.213 298.097,157.453 298.748 C 147.064 307.647,131.978 308.503,120.712 300.832 C 118.584 299.383,118.125 299.231,120.060 300.616 C 121.541 301.677,122.078 302.172,121.071 301.551 C 118.307 299.842,111.715 293.776,114.107 295.142 C 114.271 295.235,114.090 294.974,113.705 294.561 C 112.847 293.638,112.554 293.559,113.349 294.464 C 113.721 294.888,113.610 294.830,113.033 294.299 C 112.192 293.523,111.737 292.700,112.500 293.333 C 113.126 293.853,112.883 293.439,112.210 292.839 C 111.727 292.409,111.650 292.383,111.908 292.738 C 112.250 293.209,112.248 293.210,111.722 292.761 C 111.159 292.280,110.984 291.753,111.488 292.055 C 111.690 292.177,111.681 292.105,111.459 291.831 C 111.078 291.362,110.842 291.292,111.103 291.726 C 111.225 291.928,111.153 291.919,110.879 291.697 C 110.415 291.320,110.329 290.836,110.774 291.103 C 110.976 291.225,110.967 291.153,110.745 290.879 C 110.364 290.410,110.128 290.340,110.389 290.774 C 110.510 290.976,110.438 290.967,110.165 290.745 C 109.700 290.368,109.615 289.883,110.060 290.151 C 110.262 290.272,110.252 290.200,110.030 289.927 C 109.650 289.457,109.414 289.388,109.675 289.821 C 109.796 290.024,109.724 290.014,109.450 289.792 C 108.986 289.415,108.902 288.936,109.345 289.191 C 109.518 289.290,109.560 289.271,109.444 289.145 C 109.335 289.026,109.130 288.929,108.988 288.929 C 108.846 288.929,108.681 288.780,108.620 288.598 C 108.546 288.377,108.612 288.330,108.815 288.456 C 109.017 288.581,109.063 288.550,108.949 288.366 C 108.854 288.213,108.689 288.142,108.581 288.208 C 108.473 288.275,108.213 288.066,108.002 287.744 C 107.503 286.983,107.516 286.765,108.036 287.173 C 108.413 287.469,108.422 287.461,108.128 287.086 C 107.949 286.858,107.713 286.728,107.602 286.796 C 107.492 286.864,107.236 286.601,107.034 286.210 C 106.595 285.362,106.572 285.151,106.942 285.380 C 107.113 285.486,107.152 285.445,107.044 285.271 C 106.949 285.118,106.777 285.051,106.660 285.123 C 106.544 285.195,106.284 284.934,106.082 284.543 C 105.643 283.695,105.620 283.485,105.989 283.713 C 106.161 283.819,106.199 283.778,106.092 283.604 C 105.997 283.451,105.823 283.385,105.705 283.458 C 105.420 283.634,103.267 279.327,103.428 278.905 C 103.498 278.725,103.424 278.603,103.265 278.634 C 103.105 278.665,102.984 278.457,102.994 278.167 C 103.004 277.878,102.926 277.695,102.822 277.760 C 102.719 277.824,102.470 277.484,102.269 277.004 C 101.810 275.906,101.809 275.739,102.266 276.324 C 102.601 276.753,102.607 276.740,102.350 276.138 C 102.198 275.782,101.983 275.547,101.872 275.615 C 101.762 275.683,101.403 275.131,101.074 274.388 C 100.392 272.845,100.373 272.766,100.755 273.001 C 100.934 273.112,100.984 273.053,100.895 272.837 C 100.074 270.842,99.677 270.006,99.589 270.093 C 99.532 270.150,99.610 270.430,99.762 270.714 C 99.914 270.999,99.979 271.291,99.907 271.363 C 99.775 271.495,99.494 270.873,99.183 269.762 C 99.056 269.308,99.076 269.252,99.266 269.524 C 99.404 269.720,99.518 269.803,99.520 269.707 C 99.527 269.372,98.749 267.600,98.641 267.708 C 98.582 267.768,98.657 268.049,98.810 268.333 C 98.962 268.618,99.027 268.910,98.955 268.982 C 98.822 269.114,98.541 268.492,98.230 267.381 C 98.104 266.927,98.124 266.871,98.314 267.143 C 98.452 267.339,98.564 267.393,98.564 267.262 C 98.564 266.904,98.188 266.383,97.961 266.426 C 97.744 266.467,96.110 262.144,96.279 261.975 C 96.335 261.919,96.510 262.262,96.667 262.738 C 96.824 263.214,96.999 263.557,97.056 263.500 C 97.113 263.443,96.957 262.880,96.709 262.250 C 96.457 261.608,96.210 261.252,96.146 261.442 C 96.084 261.628,95.746 260.925,95.394 259.879 C 95.043 258.834,94.858 257.944,94.983 257.902 C 95.109 257.861,95.149 257.664,95.073 257.465 C 94.980 257.224,94.879 257.191,94.772 257.365 C 94.682 257.510,94.321 256.796,93.969 255.778 C 93.291 253.822,93.177 253.222,93.594 253.810 C 93.790 254.085,93.816 254.020,93.708 253.522 C 93.520 252.659,93.135 251.667,92.988 251.667 C 92.923 251.667,92.973 251.941,93.101 252.277 C 93.229 252.613,93.325 253.015,93.315 253.170 C 93.295 253.498,91.903 249.549,91.908 249.177 C 91.910 249.041,92.021 249.089,92.154 249.286 C 92.330 249.546,92.352 249.450,92.234 248.929 C 92.018 247.970,91.705 247.143,91.559 247.143 C 91.494 247.143,91.545 247.418,91.673 247.754 C 91.918 248.399,91.983 248.967,91.790 248.774 C 91.654 248.639,89.998 243.226,90.004 242.936 C 90.006 242.827,90.116 242.899,90.249 243.095 C 90.556 243.549,90.307 242.389,89.839 241.190 C 89.660 240.732,89.571 240.625,89.640 240.952 C 89.982 242.573,89.970 242.650,89.544 241.548 C 89.026 240.206,88.889 239.387,89.286 240.000 C 89.413 240.196,89.517 240.250,89.517 240.119 C 89.517 239.790,89.059 239.110,89.036 239.405 C 88.945 240.562,87.382 234.336,87.382 232.813 C 87.381 231.343,87.724 230.128,88.078 230.347 C 88.200 230.422,88.378 230.359,88.473 230.205 C 88.580 230.031,88.542 229.990,88.370 230.096 C 88.219 230.190,88.095 230.165,88.095 230.042 C 88.095 229.672,90.000 228.067,90.253 228.224 C 90.382 228.303,90.993 228.201,91.612 227.996 C 93.227 227.463,96.302 227.194,105.541 226.780 C 112.159 226.483,132.973 225.008,147.143 223.832 C 150.409 223.561,159.865 223.700,162.381 224.056 M140.952 224.056 C 140.101 224.152,138.869 224.225,138.214 224.218 L 137.024 224.206 138.452 224.048 C 139.238 223.961,140.470 223.888,141.190 223.886 L 142.500 223.882 140.952 224.056 M322.976 225.000 C 322.886 225.412,322.758 225.695,322.693 225.629 C 322.627 225.564,322.648 225.173,322.738 224.762 C 322.828 224.350,322.956 224.067,323.022 224.133 C 323.087 224.198,323.067 224.588,322.976 225.000 M135.000 224.532 C 134.149 224.628,132.863 224.701,132.143 224.694 L 130.833 224.682 132.262 224.524 C 133.048 224.437,134.333 224.364,135.119 224.362 L 136.548 224.358 135.000 224.532 M128.810 225.008 C 127.958 225.104,126.673 225.177,125.952 225.170 L 124.643 225.158 126.071 225.000 C 126.857 224.913,128.143 224.840,128.929 224.838 L 130.357 224.835 128.810 225.008 M122.619 225.485 C 121.768 225.580,120.482 225.653,119.762 225.646 L 118.452 225.634 119.881 225.476 C 120.667 225.389,121.952 225.316,122.738 225.314 L 124.167 225.311 122.619 225.485 M116.429 225.961 C 115.577 226.057,114.077 226.128,113.095 226.119 L 111.310 226.103 113.214 225.952 C 114.262 225.869,115.762 225.798,116.548 225.794 L 117.976 225.787 116.429 225.961 M110.218 226.281 C 110.164 226.331,107.976 226.422,105.357 226.483 C 102.738 226.545,101.560 226.524,102.738 226.438 C 105.230 226.256,110.363 226.148,110.218 226.281 M99.504 226.755 C 99.449 226.803,98.226 226.898,96.786 226.965 C 95.292 227.035,94.678 227.013,95.357 226.915 C 96.645 226.727,99.666 226.611,99.504 226.755 M93.790 227.229 C 93.735 227.276,93.208 227.378,92.619 227.456 C 91.904 227.551,91.706 227.528,92.024 227.387 C 92.479 227.186,93.996 227.050,93.790 227.229 M89.338 228.988 C 88.768 229.545,88.759 229.572,89.274 229.170 C 90.290 228.379,90.339 228.333,90.170 228.333 C 90.081 228.333,89.706 228.628,89.338 228.988 M167.723 231.672 C 167.928 232.651,168.086 233.613,168.075 233.810 C 168.054 234.190,167.549 232.177,167.269 230.595 C 166.980 228.963,167.333 229.799,167.723 231.672 M87.712 231.329 C 87.495 232.192,87.743 235.219,88.056 235.533 C 88.245 235.721,88.246 235.539,88.063 234.873 C 87.923 234.367,87.850 233.225,87.900 232.334 C 87.999 230.593,87.955 230.360,87.712 231.329 M321.071 232.619 C 320.981 233.031,320.853 233.314,320.788 233.248 C 320.723 233.183,320.743 232.793,320.833 232.381 C 320.924 231.969,321.051 231.686,321.117 231.752 C 321.182 231.817,321.162 232.207,321.071 232.619 M320.578 234.388 C 320.491 234.737,320.373 234.976,320.317 234.920 C 320.261 234.864,320.287 234.533,320.374 234.184 C 320.462 233.835,320.579 233.595,320.635 233.651 C 320.692 233.707,320.666 234.039,320.578 234.388 M88.674 237.976 C 88.767 238.369,88.946 238.795,89.071 238.923 C 89.196 239.051,89.173 238.783,89.019 238.328 C 88.658 237.262,88.455 237.055,88.674 237.976 M169.137 240.941 C 169.401 242.250,169.662 243.275,169.717 243.220 C 169.856 243.081,169.040 238.972,168.828 238.746 C 168.735 238.645,168.873 239.633,169.137 240.941 M222.909 241.786 C 222.900 242.571,223.040 244.125,223.220 245.238 C 223.569 247.405,223.563 247.246,223.102 242.262 C 222.933 240.437,222.925 240.417,222.909 241.786 M317.993 241.803 C 317.906 242.152,317.880 242.483,317.936 242.539 C 317.992 242.595,318.110 242.356,318.197 242.007 C 318.285 241.658,318.311 241.326,318.254 241.270 C 318.198 241.214,318.081 241.454,317.993 241.803 M90.476 243.674 C 90.476 244.070,91.256 246.561,91.442 246.761 C 91.552 246.879,91.421 246.236,91.152 245.333 C 90.691 243.785,90.476 243.258,90.476 243.674 M169.814 243.929 C 169.816 244.190,169.900 244.726,170.000 245.119 C 170.163 245.761,170.182 245.773,170.186 245.238 C 170.189 244.911,170.105 244.375,170.000 244.048 C 169.851 243.581,169.810 243.555,169.814 243.929 M316.088 248.231 C 316.001 248.580,315.975 248.912,316.031 248.968 C 316.087 249.024,316.205 248.784,316.293 248.435 C 316.380 248.086,316.406 247.755,316.350 247.699 C 316.294 247.643,316.176 247.882,316.088 248.231 M223.827 248.571 C 223.826 248.915,224.498 250.278,224.515 249.968 C 224.520 249.885,224.367 249.456,224.176 249.015 C 223.985 248.575,223.828 248.375,223.827 248.571 M315.612 249.898 C 315.525 250.247,315.499 250.578,315.555 250.634 C 315.611 250.691,315.729 250.451,315.816 250.102 C 315.904 249.753,315.930 249.422,315.874 249.366 C 315.817 249.309,315.700 249.549,315.612 249.898 M92.483 250.357 C 92.577 250.750,92.755 251.176,92.880 251.304 C 93.006 251.432,92.982 251.164,92.828 250.709 C 92.468 249.643,92.265 249.436,92.483 250.357 M229.028 253.248 C 229.267 253.454,228.179 253.302,227.857 253.084 C 227.596 252.908,227.693 252.886,228.214 253.002 C 228.607 253.090,228.973 253.201,229.028 253.248 M231.171 253.722 C 231.375 253.902,230.100 253.767,229.643 253.560 C 229.311 253.410,229.455 253.389,230.119 253.490 C 230.643 253.569,231.116 253.674,231.171 253.722 M314.628 254.985 C 314.403 255.786,314.176 256.399,314.124 256.346 C 314.072 256.294,314.211 255.594,314.435 254.792 C 314.658 253.989,314.884 253.377,314.938 253.431 C 314.992 253.485,314.853 254.184,314.628 254.985 M233.452 254.034 C 234.253 254.200,234.291 254.231,233.690 254.230 C 233.298 254.230,232.655 254.148,232.262 254.048 C 231.272 253.796,232.246 253.784,233.452 254.034 M171.925 254.286 C 171.914 254.482,172.078 255.446,172.290 256.429 C 172.713 258.393,172.837 263.136,172.582 267.619 C 172.480 269.416,172.495 269.866,172.624 268.929 C 173.035 265.943,173.158 260.855,172.870 258.690 C 172.582 256.521,171.962 253.630,171.925 254.286 M236.786 254.510 L 237.738 254.707 236.905 254.706 C 235.854 254.705,234.293 254.351,235.238 254.328 C 235.565 254.320,236.262 254.402,236.786 254.510 M240.119 254.986 L 241.071 255.183 240.238 255.183 C 239.188 255.182,237.626 254.827,238.571 254.804 C 238.899 254.796,239.595 254.878,240.119 254.986 M243.214 255.463 C 243.825 255.589,243.953 255.664,243.571 255.673 C 243.244 255.681,242.548 255.598,242.024 255.490 C 241.413 255.363,241.285 255.288,241.667 255.279 C 241.994 255.272,242.690 255.354,243.214 255.463 M94.293 255.952 C 94.293 256.149,94.397 256.470,94.524 256.667 C 94.729 256.984,94.755 256.984,94.755 256.667 C 94.755 256.470,94.651 256.149,94.524 255.952 C 94.319 255.635,94.293 255.635,94.293 255.952 M246.548 255.939 C 247.159 256.065,247.287 256.141,246.905 256.149 C 246.577 256.157,245.881 256.074,245.357 255.966 C 244.746 255.840,244.618 255.764,245.000 255.755 C 245.327 255.748,246.024 255.830,246.548 255.939 M249.881 256.415 L 250.833 256.612 250.000 256.611 C 248.950 256.610,247.388 256.255,248.333 256.232 C 248.661 256.224,249.357 256.307,249.881 256.415 M252.976 256.891 C 253.587 257.017,253.715 257.093,253.333 257.102 C 253.006 257.109,252.310 257.027,251.786 256.918 C 251.175 256.792,251.047 256.717,251.429 256.708 C 251.756 256.700,252.452 256.783,252.976 256.891 M256.310 257.367 C 256.920 257.494,257.048 257.569,256.667 257.578 C 256.339 257.585,255.643 257.503,255.119 257.395 C 254.508 257.268,254.380 257.193,254.762 257.184 C 255.089 257.176,255.786 257.259,256.310 257.367 M259.405 257.843 C 260.206 258.009,260.243 258.040,259.643 258.040 C 259.250 258.039,258.607 257.957,258.214 257.857 C 257.224 257.605,258.199 257.594,259.405 257.843 M262.500 258.320 C 263.301 258.485,263.339 258.517,262.738 258.516 C 262.345 258.515,261.702 258.433,261.310 258.333 C 260.319 258.081,261.294 258.070,262.500 258.320 M265.595 258.796 C 266.396 258.961,266.434 258.993,265.833 258.992 C 265.440 258.992,264.798 258.909,264.405 258.810 C 263.415 258.558,264.389 258.546,265.595 258.796 M268.690 259.272 C 269.301 259.398,269.429 259.474,269.048 259.483 C 268.720 259.490,268.024 259.408,267.500 259.299 C 266.889 259.173,266.761 259.097,267.143 259.089 C 267.470 259.081,268.167 259.164,268.690 259.272 M271.548 259.748 C 272.348 259.914,272.386 259.945,271.786 259.944 C 271.393 259.944,270.750 259.862,270.357 259.762 C 269.367 259.510,270.342 259.499,271.548 259.748 M274.405 260.224 C 275.206 260.390,275.243 260.421,274.643 260.421 C 274.250 260.420,273.607 260.338,273.214 260.238 C 272.224 259.986,273.199 259.975,274.405 260.224 M277.500 260.714 L 278.214 260.896 277.500 260.896 C 277.107 260.896,276.464 260.814,276.071 260.714 L 275.357 260.533 276.071 260.533 C 276.464 260.533,277.107 260.614,277.500 260.714 M280.357 261.190 L 281.071 261.372 280.357 261.372 C 279.964 261.372,279.321 261.290,278.929 261.190 L 278.214 261.009 278.929 261.009 C 279.321 261.009,279.964 261.091,280.357 261.190 M282.857 261.667 L 283.452 261.857 282.857 261.857 C 282.530 261.857,281.994 261.772,281.667 261.667 L 281.071 261.476 281.667 261.476 C 281.994 261.476,282.530 261.562,282.857 261.667 M285.238 262.143 L 285.833 262.333 285.238 262.333 C 284.911 262.333,284.375 262.248,284.048 262.143 L 283.452 261.952 284.048 261.952 C 284.375 261.952,284.911 262.038,285.238 262.143 M287.381 262.619 C 287.852 262.770,287.877 262.810,287.500 262.810 C 287.238 262.810,286.756 262.724,286.429 262.619 C 285.957 262.468,285.932 262.428,286.310 262.428 C 286.571 262.428,287.054 262.514,287.381 262.619 M289.524 263.095 C 289.995 263.246,290.020 263.286,289.643 263.286 C 289.381 263.286,288.899 263.200,288.571 263.095 C 288.100 262.944,288.075 262.905,288.452 262.905 C 288.714 262.905,289.196 262.990,289.524 263.095 M291.548 263.571 L 292.024 263.776 291.548 263.776 C 291.286 263.776,290.857 263.684,290.595 263.571 L 290.119 263.367 290.595 263.367 C 290.857 263.367,291.286 263.459,291.548 263.571 M97.162 264.062 C 97.151 264.266,97.309 264.641,97.513 264.895 C 97.877 265.350,97.880 265.350,97.664 264.881 C 97.544 264.619,97.386 264.244,97.313 264.048 C 97.198 263.739,97.178 263.741,97.162 264.062 M293.571 264.048 C 294.043 264.199,294.068 264.238,293.690 264.238 C 293.429 264.238,292.946 264.152,292.619 264.048 C 292.148 263.897,292.123 263.857,292.500 263.857 C 292.762 263.857,293.244 263.943,293.571 264.048 M295.476 264.524 C 295.955 264.677,295.978 264.716,295.595 264.721 C 295.333 264.725,294.905 264.636,294.643 264.524 C 294.036 264.263,294.662 264.263,295.476 264.524 M297.381 265.000 C 297.859 265.153,297.883 265.192,297.500 265.198 C 297.238 265.201,296.810 265.113,296.548 265.000 C 295.941 264.739,296.567 264.739,297.381 265.000 M299.524 265.476 C 299.995 265.627,300.020 265.667,299.643 265.667 C 299.381 265.667,298.899 265.581,298.571 265.476 C 298.100 265.325,298.075 265.286,298.452 265.286 C 298.714 265.286,299.196 265.371,299.524 265.476 M301.667 265.952 C 302.138 266.103,302.163 266.143,301.786 266.143 C 301.524 266.143,301.042 266.057,300.714 265.952 C 300.243 265.801,300.218 265.762,300.595 265.762 C 300.857 265.762,301.339 265.848,301.667 265.952 M303.929 266.429 C 304.570 266.592,304.582 266.611,304.048 266.615 C 303.720 266.617,303.185 266.533,302.857 266.429 C 302.057 266.172,302.921 266.172,303.929 266.429 M306.845 266.837 C 306.485 266.892,305.896 266.892,305.536 266.837 C 305.176 266.783,305.470 266.738,306.190 266.738 C 306.911 266.738,307.205 266.783,306.845 266.837 M229.583 267.553 C 229.158 267.606,228.461 267.606,228.036 267.553 C 227.610 267.500,227.958 267.457,228.810 267.457 C 229.661 267.457,230.009 267.500,229.583 267.553 M245.595 270.487 C 270.557 274.594,294.420 278.810,296.711 279.518 C 297.538 279.774,298.747 280.321,299.398 280.734 C 300.048 281.147,300.435 281.308,300.256 281.093 C 300.078 280.878,299.170 280.324,298.240 279.861 C 297.309 279.398,296.815 279.093,297.143 279.183 C 300.103 279.998,301.937 282.137,301.867 284.693 L 301.830 286.071 301.689 284.476 C 301.611 283.598,301.401 282.741,301.221 282.571 C 300.945 282.310,300.940 282.351,301.190 282.836 C 301.384 283.212,301.447 284.031,301.372 285.217 C 301.309 286.212,301.342 286.810,301.445 286.548 C 301.592 286.175,301.637 286.157,301.650 286.467 C 301.671 286.956,300.720 289.556,300.401 289.881 C 300.174 290.113,300.188 290.051,300.633 288.869 C 300.929 288.083,300.492 288.714,300.114 289.617 C 299.907 290.113,299.850 290.450,299.988 290.365 C 300.125 290.280,300.234 290.297,300.230 290.403 C 300.207 290.916,295.715 300.350,295.514 300.305 C 295.387 300.277,295.221 300.416,295.144 300.615 C 295.065 300.821,295.107 300.914,295.241 300.832 C 295.623 300.595,295.579 300.699,293.065 305.994 C 289.538 313.421,285.800 320.595,285.457 320.595 C 285.293 320.595,285.115 320.756,285.061 320.952 C 284.975 321.270,284.992 321.270,285.216 320.952 C 285.355 320.756,285.471 320.716,285.473 320.864 C 285.480 321.379,283.379 324.880,283.102 324.816 C 282.948 324.780,282.887 324.856,282.967 324.986 C 283.162 325.301,282.183 327.196,281.912 327.028 C 281.795 326.956,281.622 327.022,281.527 327.176 C 281.420 327.350,281.458 327.391,281.630 327.285 C 281.972 327.074,281.980 327.272,281.655 327.879 C 281.517 328.136,281.310 328.288,281.195 328.217 C 281.080 328.146,280.908 328.213,280.813 328.366 C 280.699 328.550,280.744 328.581,280.946 328.456 C 281.150 328.330,281.215 328.377,281.142 328.598 C 281.081 328.780,280.916 328.929,280.774 328.929 C 280.632 328.929,280.427 329.026,280.317 329.145 C 280.200 329.273,280.254 329.284,280.448 329.172 C 280.672 329.041,280.741 329.086,280.666 329.312 C 280.605 329.494,280.439 329.643,280.298 329.643 C 280.156 329.643,279.950 329.740,279.841 329.860 C 279.724 329.988,279.777 329.998,279.971 329.886 C 280.196 329.756,280.265 329.800,280.190 330.026 C 280.129 330.208,279.963 330.357,279.821 330.357 C 279.680 330.357,279.474 330.455,279.365 330.574 C 279.248 330.702,279.301 330.713,279.495 330.600 C 279.720 330.470,279.789 330.514,279.713 330.741 C 279.653 330.923,279.487 331.071,279.345 331.071 C 279.203 331.071,278.998 331.169,278.889 331.288 C 278.774 331.414,278.815 331.433,278.988 331.334 C 279.397 331.098,279.361 331.453,278.912 332.094 C 278.707 332.387,278.446 332.570,278.333 332.500 C 278.221 332.430,278.051 332.499,277.956 332.652 C 277.842 332.836,277.887 332.867,278.089 332.742 C 278.293 332.616,278.358 332.663,278.285 332.884 C 278.224 333.065,278.059 333.214,277.917 333.214 C 277.775 333.214,277.569 333.312,277.460 333.431 C 277.345 333.557,277.387 333.576,277.560 333.477 C 278.003 333.221,277.919 333.701,277.454 334.078 C 277.181 334.300,277.109 334.309,277.230 334.107 C 277.491 333.673,277.255 333.743,276.874 334.212 C 276.652 334.486,276.643 334.558,276.845 334.436 C 277.290 334.169,277.204 334.654,276.740 335.030 C 276.466 335.252,276.394 335.262,276.516 335.060 C 276.777 334.626,276.541 334.695,276.160 335.165 C 275.938 335.438,275.929 335.510,276.131 335.389 C 276.635 335.086,276.460 335.614,275.897 336.094 C 275.371 336.543,275.369 336.543,275.718 336.071 C 276.042 335.634,276.038 335.621,275.669 335.910 C 275.448 336.084,275.314 336.351,275.372 336.506 C 275.430 336.660,275.037 337.268,274.499 337.857 C 273.960 338.446,273.651 338.741,273.812 338.512 C 274.259 337.878,273.964 338.015,273.315 338.743 C 272.998 339.099,272.926 339.247,273.155 339.071 C 273.890 338.507,273.602 339.043,272.462 340.364 C 271.853 341.070,271.236 341.582,271.093 341.500 C 270.950 341.419,270.916 341.444,271.018 341.555 C 271.204 341.760,268.880 344.286,268.506 344.286 C 268.396 344.286,268.388 344.152,268.489 343.988 C 268.590 343.824,268.033 344.234,267.253 344.899 C 263.475 348.115,259.404 350.323,254.922 351.589 C 253.420 352.013,253.220 352.113,254.048 352.027 C 254.830 351.945,254.956 351.968,254.514 352.114 C 253.706 352.380,240.964 352.378,240.357 352.112 C 240.031 351.969,240.219 351.940,240.952 352.020 C 241.656 352.096,241.289 351.942,239.881 351.570 C 233.888 349.985,229.824 347.831,225.476 343.935 L 223.690 342.335 225.595 344.168 C 226.643 345.175,228.326 346.547,229.335 347.216 C 230.344 347.886,231.128 348.475,231.076 348.527 C 230.689 348.914,222.619 342.082,222.619 341.367 C 222.619 341.230,222.833 341.311,223.095 341.548 C 223.357 341.785,223.571 341.927,223.571 341.864 C 223.571 341.801,223.286 341.490,222.938 341.172 C 222.589 340.855,222.393 340.756,222.503 340.952 C 222.629 341.180,222.513 341.145,222.184 340.856 C 221.570 340.318,221.481 339.796,222.083 340.268 C 222.459 340.563,222.469 340.555,222.180 340.186 C 222.003 339.961,221.749 339.800,221.614 339.829 C 221.479 339.858,221.315 339.732,221.249 339.550 C 221.166 339.323,221.231 339.279,221.457 339.410 C 221.651 339.522,221.704 339.511,221.587 339.383 C 221.478 339.264,221.273 339.167,221.131 339.167 C 220.989 339.167,220.823 339.018,220.763 338.836 C 220.687 338.610,220.756 338.565,220.981 338.696 C 221.175 338.808,221.228 338.797,221.111 338.669 C 221.002 338.550,220.797 338.452,220.655 338.452 C 220.513 338.452,220.347 338.304,220.287 338.122 C 220.211 337.895,220.280 337.851,220.505 337.981 C 220.699 338.094,220.752 338.083,220.635 337.955 C 220.526 337.836,220.320 337.738,220.179 337.738 C 220.037 337.738,219.871 337.589,219.810 337.407 C 219.737 337.187,219.802 337.140,220.006 337.266 C 220.208 337.390,220.253 337.360,220.139 337.176 C 220.045 337.022,219.871 336.956,219.754 337.029 C 219.637 337.101,219.269 336.624,218.937 335.969 C 218.263 334.640,218.207 334.418,218.608 334.666 C 218.780 334.772,218.818 334.731,218.711 334.557 C 218.616 334.403,218.453 334.331,218.348 334.396 C 218.097 334.551,216.669 331.391,215.769 328.690 C 214.788 325.742,214.548 323.512,214.426 316.190 L 214.320 309.881 214.546 316.071 C 214.671 319.476,214.872 322.905,214.994 323.690 L 215.216 325.119 215.113 323.452 C 214.685 316.529,214.753 309.664,215.344 300.000 L 215.453 298.214 215.224 299.881 C 215.098 300.798,214.905 303.423,214.796 305.714 C 214.606 309.684,214.595 309.752,214.561 307.143 C 214.525 304.400,215.032 298.074,215.479 295.680 C 215.920 293.315,221.145 277.307,221.606 276.905 C 221.681 276.839,221.673 276.979,221.588 277.215 C 221.503 277.451,221.527 277.586,221.641 277.516 C 221.754 277.446,221.904 277.172,221.973 276.908 C 222.042 276.644,222.001 276.488,221.883 276.561 C 221.584 276.746,221.618 276.149,221.931 275.714 C 222.146 275.416,222.165 275.427,222.049 275.786 C 221.973 276.022,222.003 276.158,222.117 276.088 C 222.230 276.017,222.380 275.744,222.449 275.480 C 222.518 275.215,222.477 275.059,222.359 275.133 C 221.997 275.356,222.134 274.738,222.943 272.500 C 223.368 271.321,223.836 270.357,223.981 270.357 C 224.127 270.357,224.335 270.260,224.444 270.140 C 224.560 270.014,224.518 269.995,224.345 270.095 C 223.630 270.506,224.146 269.717,225.229 268.744 L 226.411 267.681 228.146 267.791 C 229.100 267.852,236.952 269.065,245.595 270.487 M232.500 267.857 C 233.137 268.019,233.150 268.039,232.619 268.039 C 232.292 268.039,231.702 267.957,231.310 267.857 C 230.672 267.695,230.660 267.675,231.190 267.675 C 231.518 267.675,232.107 267.757,232.500 267.857 M225.552 268.750 C 225.037 269.241,224.889 269.409,225.224 269.122 C 225.559 268.836,226.155 268.435,226.548 268.231 C 226.949 268.022,227.093 267.859,226.876 267.859 C 226.664 267.858,226.068 268.259,225.552 268.750 M235.357 268.333 C 235.994 268.495,236.007 268.515,235.476 268.515 C 235.149 268.515,234.560 268.433,234.167 268.333 C 233.530 268.171,233.517 268.152,234.048 268.152 C 234.375 268.152,234.964 268.233,235.357 268.333 M238.452 268.810 L 239.167 268.991 238.452 268.991 C 238.060 268.991,237.417 268.909,237.024 268.810 L 236.310 268.628 237.024 268.628 C 237.417 268.628,238.060 268.710,238.452 268.810 M241.310 269.286 L 242.024 269.467 241.310 269.467 C 240.917 269.467,240.274 269.386,239.881 269.286 L 239.167 269.104 239.881 269.104 C 240.274 269.104,240.917 269.186,241.310 269.286 M244.167 269.762 C 245.157 270.014,244.182 270.025,242.976 269.776 C 242.175 269.610,242.138 269.579,242.738 269.579 C 243.131 269.580,243.774 269.662,244.167 269.762 M247.024 270.238 C 248.014 270.490,247.039 270.501,245.833 270.252 C 245.033 270.086,244.995 270.055,245.595 270.056 C 245.988 270.056,246.631 270.138,247.024 270.238 M249.881 270.714 C 250.518 270.876,250.531 270.896,250.000 270.896 C 249.673 270.896,249.083 270.814,248.690 270.714 C 248.053 270.552,248.040 270.533,248.571 270.533 C 248.899 270.533,249.488 270.614,249.881 270.714 M252.738 271.190 C 253.375 271.353,253.388 271.372,252.857 271.372 C 252.530 271.372,251.940 271.290,251.548 271.190 C 250.910 271.028,250.898 271.009,251.429 271.009 C 251.756 271.009,252.345 271.091,252.738 271.190 M255.714 271.667 L 256.310 271.857 255.714 271.853 C 255.387 271.850,254.798 271.767,254.405 271.667 L 253.690 271.485 254.405 271.480 C 254.798 271.478,255.387 271.562,255.714 271.667 M172.019 274.457 C 171.456 276.849,171.344 276.519,171.850 273.957 C 172.077 272.810,172.300 272.059,172.347 272.288 C 172.394 272.517,172.246 273.492,172.019 274.457 M258.452 272.143 C 259.090 272.305,259.102 272.325,258.571 272.325 C 258.244 272.325,257.655 272.243,257.262 272.143 C 256.625 271.981,256.612 271.961,257.143 271.961 C 257.470 271.961,258.060 272.043,258.452 272.143 M261.310 272.619 C 261.947 272.781,261.960 272.801,261.429 272.801 C 261.101 272.801,260.512 272.719,260.119 272.619 C 259.482 272.457,259.469 272.437,260.000 272.437 C 260.327 272.437,260.917 272.519,261.310 272.619 M264.048 273.095 L 264.643 273.286 264.048 273.281 C 263.720 273.279,263.131 273.195,262.738 273.095 L 262.024 272.913 262.738 272.909 C 263.131 272.907,263.720 272.990,264.048 273.095 M266.786 273.571 C 267.423 273.734,267.436 273.753,266.905 273.753 C 266.577 273.753,265.988 273.671,265.595 273.571 C 264.958 273.409,264.945 273.390,265.476 273.390 C 265.804 273.390,266.393 273.471,266.786 273.571 M269.643 274.048 L 270.357 274.229 269.643 274.229 C 269.250 274.229,268.607 274.148,268.214 274.048 L 267.500 273.866 268.214 273.866 C 268.607 273.866,269.250 273.948,269.643 274.048 M272.262 274.524 C 272.899 274.686,272.912 274.706,272.381 274.706 C 272.054 274.706,271.464 274.624,271.071 274.524 C 270.434 274.362,270.421 274.342,270.952 274.342 C 271.280 274.342,271.869 274.424,272.262 274.524 M275.119 275.000 C 275.756 275.162,275.769 275.182,275.238 275.182 C 274.911 275.182,274.321 275.100,273.929 275.000 C 273.291 274.838,273.279 274.818,273.810 274.818 C 274.137 274.818,274.726 274.900,275.119 275.000 M277.738 275.476 C 278.375 275.638,278.388 275.658,277.857 275.658 C 277.530 275.658,276.940 275.576,276.548 275.476 C 275.910 275.314,275.898 275.294,276.429 275.294 C 276.756 275.294,277.345 275.376,277.738 275.476 M280.357 275.952 C 280.994 276.115,281.007 276.134,280.476 276.134 C 280.149 276.134,279.560 276.052,279.167 275.952 C 278.530 275.790,278.517 275.771,279.048 275.771 C 279.375 275.771,279.964 275.852,280.357 275.952 M283.095 276.429 L 283.690 276.619 283.095 276.615 C 282.768 276.612,282.179 276.529,281.786 276.429 L 281.071 276.247 281.786 276.242 C 282.179 276.240,282.768 276.324,283.095 276.429 M171.189 277.552 C 170.931 277.954,170.924 277.953,171.053 277.540 C 171.129 277.300,171.203 276.925,171.218 276.707 C 171.243 276.349,171.256 276.350,171.353 276.719 C 171.412 276.944,171.338 277.319,171.189 277.552 M285.714 276.905 C 286.515 277.161,285.650 277.161,284.643 276.905 C 284.001 276.742,283.989 276.723,284.524 276.719 C 284.851 276.716,285.387 276.800,285.714 276.905 M288.452 277.381 C 289.090 277.543,289.102 277.563,288.571 277.563 C 288.244 277.563,287.655 277.481,287.262 277.381 C 286.625 277.219,286.612 277.199,287.143 277.199 C 287.470 277.199,288.060 277.281,288.452 277.381 M291.071 277.857 C 291.709 278.019,291.721 278.039,291.190 278.039 C 290.863 278.039,290.274 277.957,289.881 277.857 C 289.244 277.695,289.231 277.675,289.762 277.675 C 290.089 277.675,290.679 277.757,291.071 277.857 M293.690 278.333 C 294.328 278.495,294.340 278.515,293.810 278.515 C 293.482 278.515,292.893 278.433,292.500 278.333 C 291.863 278.171,291.850 278.152,292.381 278.152 C 292.708 278.152,293.298 278.233,293.690 278.333 M295.952 278.810 C 296.424 278.960,296.448 279.000,296.071 279.000 C 295.810 279.000,295.327 278.914,295.000 278.810 C 294.529 278.659,294.504 278.619,294.881 278.619 C 295.143 278.619,295.625 278.705,295.952 278.810 M219.550 283.241 C 219.255 284.102,219.055 284.848,219.105 284.899 C 219.156 284.950,219.440 284.287,219.735 283.426 C 220.031 282.565,220.231 281.818,220.180 281.768 C 220.129 281.717,219.846 282.380,219.550 283.241 M217.643 288.952 C 217.506 289.448,217.437 289.897,217.489 289.949 C 217.541 290.002,217.696 289.639,217.833 289.143 C 217.970 288.647,218.039 288.198,217.987 288.146 C 217.935 288.093,217.780 288.456,217.643 288.952 M216.891 291.346 C 216.759 291.693,216.686 292.082,216.729 292.209 C 216.771 292.337,216.925 292.053,217.071 291.578 C 217.378 290.580,217.246 290.411,216.891 291.346 M215.867 294.812 C 215.787 295.112,215.731 295.625,215.744 295.952 C 215.757 296.303,215.852 296.114,215.974 295.491 C 216.192 294.376,216.115 293.885,215.867 294.812 M115.119 296.406 C 115.879 297.237,118.571 299.634,118.571 299.479 C 118.571 299.428,117.634 298.540,116.488 297.506 C 115.342 296.471,114.726 295.976,115.119 296.406 M215.531 297.381 C 215.531 297.839,215.580 298.027,215.640 297.798 C 215.700 297.568,215.700 297.193,215.640 296.964 C 215.580 296.735,215.531 296.923,215.531 297.381 M154.286 301.536 C 154.286 301.691,151.385 303.369,151.287 303.271 C 151.242 303.226,151.872 302.798,152.686 302.321 C 154.302 301.373,154.286 301.380,154.286 301.536 M123.095 302.607 C 123.292 302.741,123.345 302.849,123.214 302.848 C 123.083 302.847,122.708 302.627,122.381 302.360 C 121.799 301.884,122.269 302.047,123.095 302.607 M125.138 303.751 C 125.029 303.860,123.571 303.137,123.571 302.974 C 123.571 302.914,123.945 303.043,124.402 303.261 C 124.858 303.479,125.190 303.699,125.138 303.751 M148.769 304.406 C 148.556 304.619,145.167 305.715,144.780 305.696 C 144.573 305.686,145.315 305.375,146.429 305.006 C 148.507 304.318,148.978 304.197,148.769 304.406 M128.810 305.000 C 129.127 305.205,129.127 305.231,128.810 305.231 C 128.613 305.231,128.292 305.127,128.095 305.000 C 127.778 304.795,127.778 304.769,128.095 304.769 C 128.292 304.769,128.613 304.873,128.810 305.000 M130.476 305.476 C 130.955 305.629,130.978 305.668,130.595 305.674 C 130.333 305.678,129.905 305.589,129.643 305.476 C 129.036 305.215,129.662 305.215,130.476 305.476 M133.552 306.102 C 133.739 306.269,132.262 306.143,131.667 305.941 C 131.265 305.804,131.459 305.783,132.262 305.876 C 132.917 305.952,133.497 306.053,133.552 306.102 M143.810 305.952 C 143.482 306.057,142.893 306.140,142.500 306.135 C 141.808 306.128,141.811 306.122,142.619 305.952 C 143.807 305.702,144.590 305.702,143.810 305.952 M139.583 306.512 C 138.477 306.626,136.761 306.622,135.655 306.504 C 133.868 306.312,134.046 306.294,137.619 306.301 C 141.186 306.308,141.367 306.328,139.583 306.512 M290.277 310.605 C 289.878 311.481,289.954 311.668,290.385 310.872 C 290.587 310.500,290.707 310.151,290.653 310.097 C 290.598 310.043,290.429 310.271,290.277 310.605 M215.255 325.853 C 215.264 326.235,215.366 326.762,215.482 327.024 C 215.623 327.342,215.646 327.144,215.552 326.429 C 215.385 325.167,215.231 324.869,215.255 325.853 M271.892 340.417 L 271.071 341.310 271.964 340.489 C 272.455 340.038,272.857 339.636,272.857 339.596 C 272.857 339.414,272.656 339.586,271.892 340.417 M269.706 342.745 C 269.217 343.199,268.901 343.571,269.004 343.571 C 269.108 343.571,269.556 343.196,270.000 342.738 C 271.036 341.669,270.859 341.673,269.706 342.745 M267.957 344.783 C 266.828 346.031,260.610 350.213,260.318 349.921 C 260.261 349.864,260.997 349.387,261.953 348.860 C 263.699 347.897,267.270 345.351,267.845 344.657 C 268.015 344.453,268.211 344.286,268.280 344.286 C 268.350 344.286,268.205 344.509,267.957 344.783 M233.946 349.943 C 233.839 350.050,231.429 348.849,231.429 348.689 C 231.429 348.627,232.015 348.864,232.731 349.216 C 233.448 349.567,233.994 349.895,233.946 349.943 M260.000 350.116 C 260.000 350.241,258.372 350.959,258.126 350.942 C 257.935 350.930,259.583 350.023,259.821 350.010 C 259.920 350.004,260.000 350.052,260.000 350.116 M238.452 351.419 C 239.238 351.672,239.667 351.877,239.405 351.874 C 238.903 351.868,236.376 351.000,236.786 350.974 C 236.917 350.966,237.667 351.166,238.452 351.419 M13.810 395.156 C 13.810 395.242,13.595 395.118,13.333 394.881 C 13.071 394.644,12.857 394.359,12.857 394.249 C 12.857 394.138,13.071 394.262,13.333 394.524 C 13.595 394.786,13.810 395.070,13.810 395.156 M386.786 394.762 C 386.547 395.025,386.307 395.196,386.251 395.140 C 386.128 395.017,386.985 394.096,387.122 394.205 C 387.175 394.248,387.024 394.498,386.786 394.762 M15.000 396.190 C 15.262 396.452,15.386 396.667,15.275 396.667 C 15.164 396.667,14.880 396.452,14.643 396.190 C 14.406 395.929,14.282 395.714,14.368 395.714 C 14.454 395.714,14.738 395.929,15.000 396.190 M385.357 396.190 C 385.120 396.452,384.836 396.667,384.725 396.667 C 384.465 396.667,385.288 395.760,385.573 395.734 C 385.691 395.723,385.594 395.929,385.357 396.190 " stroke="none" fill="#44946c" fill-rule="evenodd"></path><path id="path1" d="M12.024 0.476 C 11.724 0.605,11.680 0.681,11.905 0.681 C 12.101 0.681,12.476 0.589,12.738 0.476 C 13.038 0.347,13.082 0.272,12.857 0.272 C 12.661 0.272,12.286 0.364,12.024 0.476 M387.262 0.476 C 387.524 0.589,387.899 0.681,388.095 0.681 C 388.320 0.681,388.276 0.605,387.976 0.476 C 387.714 0.364,387.339 0.272,387.143 0.272 C 386.918 0.272,386.962 0.347,387.262 0.476 M14.643 3.810 C 14.406 4.071,14.282 4.286,14.368 4.286 C 14.454 4.286,14.738 4.071,15.000 3.810 C 15.262 3.548,15.386 3.333,15.275 3.333 C 15.164 3.333,14.880 3.548,14.643 3.810 M385.000 3.810 C 385.262 4.071,385.546 4.286,385.632 4.286 C 385.718 4.286,385.594 4.071,385.357 3.810 C 385.120 3.548,384.836 3.333,384.725 3.333 C 384.614 3.333,384.738 3.548,385.000 3.810 M4.662 4.662 C 4.062 5.261,3.571 5.859,3.571 5.989 C 3.571 6.120,3.844 5.903,4.178 5.506 C 4.512 5.109,5.109 4.512,5.506 4.178 C 5.903 3.844,6.120 3.571,5.989 3.571 C 5.859 3.571,5.261 4.062,4.662 4.662 M394.494 4.178 C 394.891 4.512,395.488 5.109,395.822 5.506 C 396.156 5.903,396.429 6.120,396.429 5.989 C 396.429 5.680,394.320 3.571,394.011 3.571 C 393.880 3.571,394.097 3.844,394.494 4.178 M13.253 5.196 C 12.681 5.827,12.765 6.044,13.353 5.456 C 13.626 5.184,13.804 4.915,13.749 4.860 C 13.693 4.804,13.470 4.956,13.253 5.196 M386.190 4.844 C 386.190 4.930,386.405 5.214,386.667 5.476 C 386.929 5.738,387.143 5.862,387.143 5.751 C 387.143 5.641,386.929 5.356,386.667 5.119 C 386.405 4.882,386.190 4.758,386.190 4.844 M0.374 12.279 C 0.287 12.628,0.261 12.959,0.317 13.015 C 0.373 13.071,0.491 12.832,0.578 12.483 C 0.666 12.134,0.692 11.803,0.635 11.747 C 0.579 11.690,0.462 11.930,0.374 12.279 M399.319 11.905 C 399.319 12.101,399.411 12.476,399.524 12.738 C 399.653 13.038,399.728 13.082,399.728 12.857 C 399.728 12.661,399.636 12.286,399.524 12.024 C 399.395 11.724,399.319 11.680,399.319 11.905 M0.272 387.143 C 0.272 387.339,0.364 387.714,0.476 387.976 C 0.605 388.276,0.681 388.320,0.681 388.095 C 0.681 387.899,0.589 387.524,0.476 387.262 C 0.347 386.962,0.272 386.918,0.272 387.143 M399.422 387.517 C 399.334 387.866,399.308 388.197,399.365 388.253 C 399.421 388.310,399.538 388.070,399.626 387.721 C 399.713 387.372,399.739 387.041,399.683 386.985 C 399.627 386.929,399.509 387.168,399.422 387.517 M3.571 394.011 C 3.571 394.320,5.680 396.429,5.989 396.429 C 6.120 396.429,5.903 396.156,5.506 395.822 C 5.109 395.488,4.512 394.891,4.178 394.494 C 3.844 394.097,3.571 393.880,3.571 394.011 M395.093 395.153 C 394.423 395.855,393.959 396.429,394.062 396.429 C 394.324 396.429,396.429 394.295,396.429 394.029 C 396.429 393.741,396.489 393.690,395.093 395.153 M12.857 394.249 C 12.857 394.359,13.071 394.644,13.333 394.881 C 13.595 395.118,13.810 395.242,13.810 395.156 C 13.810 395.070,13.595 394.786,13.333 394.524 C 13.071 394.262,12.857 394.138,12.857 394.249 M386.587 394.583 C 386.347 394.834,386.196 395.085,386.251 395.140 C 386.307 395.196,386.547 395.025,386.786 394.762 C 387.345 394.144,387.163 393.981,386.587 394.583 M14.643 396.190 C 14.880 396.452,15.164 396.667,15.275 396.667 C 15.386 396.667,15.262 396.452,15.000 396.190 C 14.738 395.929,14.454 395.714,14.368 395.714 C 14.282 395.714,14.406 395.929,14.643 396.190 M384.940 396.210 C 384.711 396.461,384.614 396.667,384.725 396.667 C 384.836 396.667,385.120 396.452,385.357 396.190 C 385.594 395.929,385.691 395.723,385.573 395.734 C 385.454 395.745,385.170 395.959,384.940 396.210 M12.024 399.524 C 12.286 399.636,12.661 399.728,12.857 399.728 C 13.082 399.728,13.038 399.653,12.738 399.524 C 12.476 399.411,12.101 399.319,11.905 399.319 C 11.680 399.319,11.724 399.395,12.024 399.524 M387.262 399.524 C 386.962 399.653,386.918 399.728,387.143 399.728 C 387.339 399.728,387.714 399.636,387.976 399.524 C 388.276 399.395,388.320 399.319,388.095 399.319 C 387.899 399.319,387.524 399.411,387.262 399.524 " stroke="none" fill="#3c946c" fill-rule="evenodd"></path><path id="path2" d="" stroke="none" fill="#449c6c" fill-rule="evenodd"></path><path id="path3" d="" stroke="none" fill="#449474" fill-rule="evenodd"></path><path id="path4" d="" stroke="none" fill="#48946c" fill-rule="evenodd"></path></g></svg>