<?xml version="1.0" standalone="no"?>
<!DOCTYPE svg PUBLIC "-//W3C//DTD SVG 20010904//EN"
 "http://www.w3.org/TR/2001/REC-SVG-20010904/DTD/svg10.dtd">
<svg version="1.0" xmlns="http://www.w3.org/2000/svg"
 width="1071.000000pt" height="1280.000000pt" viewBox="0 0 1071.000000 1280.000000"
 preserveAspectRatio="xMidYMid meet">
<metadata>
Created by potrace 1.15, written by Peter Selinger 2001-2017
</metadata>
<g transform="translate(0.000000,1280.000000) scale(0.100000,-0.100000)"
fill="#000000" stroke="none">
<path d="M2400 12789 c-16 -5 -5 -6 30 -3 39 3 22 -3 -58 -20 -323 -69 -651
-229 -915 -444 -41 -34 -124 -107 -183 -163 l-109 -101 107 105 c123 121 216
198 338 282 47 32 90 63 95 68 38 37 -160 -100 -255 -177 -102 -82 -301 -277
-294 -288 3 -4 1 -7 -4 -6 -5 2 -46 -38 -91 -88 -78 -88 -101 -122 -63 -93 14
11 13 10 -2 -9 -21 -24 -31 -29 -20 -9 4 6 -2 3 -14 -7 -26 -23 -30 -44 -4
-25 15 11 15 11 4 -1 -7 -8 -18 -15 -24 -15 -6 0 -13 -6 -16 -14 -3 -9 0 -11
9 -6 8 5 5 -1 -5 -13 -23 -26 -34 -29 -15 -4 11 14 10 13 -9 -2 -22 -19 -31
-43 -12 -31 16 10 11 -1 -7 -16 -15 -12 -16 -12 -8 1 8 13 7 13 -8 1 -18 -14
-24 -36 -7 -26 16 10 11 -1 -7 -16 -14 -12 -16 -12 -9 1 4 8 -4 2 -18 -15 -30
-34 -34 -54 -9 -34 16 11 16 11 5 -1 -7 -8 -18 -15 -24 -15 -6 0 -13 -6 -16
-14 -3 -9 0 -11 9 -6 8 5 11 4 6 -1 -5 -5 -14 -9 -20 -9 -5 0 -12 -6 -15 -14
-3 -9 0 -11 9 -6 8 5 11 4 6 -1 -5 -5 -14 -9 -20 -9 -5 0 -12 -6 -15 -14 -3
-9 0 -11 9 -6 8 5 11 4 6 -1 -5 -5 -14 -9 -20 -9 -5 0 -12 -6 -15 -14 -3 -9 0
-11 8 -6 9 5 11 4 6 -4 -4 -6 -11 -9 -16 -6 -5 3 -14 -3 -19 -14 -14 -26 -14
-34 1 -25 7 4 8 3 4 -5 -4 -6 -11 -9 -16 -6 -5 3 -14 -3 -19 -14 -14 -26 -14
-34 1 -25 7 4 8 3 4 -5 -4 -6 -11 -9 -16 -6 -5 3 -16 -8 -25 -24 -18 -36 -19
-45 -3 -35 7 4 8 3 4 -5 -4 -6 -11 -9 -16 -6 -11 7 -82 -126 -75 -142 2 -7 -1
-12 -8 -10 -7 1 -12 -8 -11 -20 0 -12 -3 -21 -7 -20 -5 1 -26 -34 -47 -79 -47
-95 -59 -129 -43 -120 7 4 9 1 5 -8 -3 -9 -10 -14 -16 -13 -5 1 -20 -25 -34
-57 -28 -70 -32 -99 -5 -41 26 54 26 42 0 -25 -11 -30 -29 -63 -40 -73 -20
-19 -25 -37 -9 -37 5 0 6 -8 3 -17 -5 -13 -8 -14 -11 -3 -5 14 -41 -64 -41
-90 -1 -13 0 -13 9 0 12 18 12 2 0 -25 -6 -14 -9 -15 -10 -5 -1 9 -5 5 -11 -9
-7 -18 -6 -27 3 -33 12 -7 5 -12 -13 -10 -9 2 -22 -49 -14 -56 3 -3 5 2 5 11
0 9 4 18 8 21 4 3 -14 -74 -40 -171 -26 -97 -48 -183 -49 -192 0 -12 -3 -11
-9 4 -6 13 -9 15 -9 5 -1 -8 -4 -26 -6 -40 -5 -22 -4 -23 5 -5 7 15 8 10 4
-20 -11 -74 -32 -151 -34 -125 l-2 25 -8 -25 c-4 -14 -8 -36 -8 -50 l0 -25 8
25 c14 43 11 9 -10 -110 -72 -408 -92 -623 -97 -1050 -7 -533 11 -790 103
-1423 33 -232 40 -293 24 -232 l-8 30 0 -30 c0 -16 4 -43 8 -60 l8 -30 2 30
c1 17 11 -17 21 -75 18 -106 23 -172 9 -115 l-8 30 0 -30 c0 -16 4 -43 8 -60
l8 -30 2 30 c1 18 10 -9 21 -65 18 -94 24 -165 9 -105 l-8 30 0 -30 c0 -16 4
-43 8 -60 l8 -30 2 30 c1 18 10 -9 21 -65 19 -100 24 -156 9 -110 l-8 25 0
-25 c0 -14 4 -38 8 -55 l8 -30 2 30 c1 17 10 -14 21 -69 17 -90 38 -173 56
-223 3 -10 3 -15 -2 -11 -4 4 -18 43 -31 85 -13 43 -23 71 -23 62 -2 -47 62
-204 79 -194 5 3 12 0 16 -6 5 -8 3 -9 -6 -4 -8 5 -11 3 -8 -6 3 -8 11 -13 17
-11 7 1 10 -1 7 -6 -3 -5 8 -19 24 -30 38 -29 47 -28 18 1 -13 12 -16 16 -7 9
30 -23 110 -42 179 -42 65 0 396 31 735 70 369 42 722 68 1255 95 168 8 364
18 435 21 72 4 294 7 495 8 413 1 419 2 487 80 20 22 32 34 28 26 -4 -8 -15
-23 -23 -32 -8 -10 -11 -18 -6 -18 17 0 75 107 73 137 0 10 -7 -1 -16 -25 -23
-65 -25 -45 -3 28 10 36 26 100 35 143 10 43 19 76 21 74 3 -2 -5 -46 -16 -97
-11 -51 -19 -95 -17 -97 3 -2 12 31 22 74 9 43 21 91 26 107 5 16 9 38 8 50
-1 19 -2 18 -9 -4 -15 -48 -10 12 6 65 l14 50 -4 -45 c-4 -38 -3 -40 4 -15 18
61 50 204 49 222 -1 24 -5 12 -25 -82 -9 -44 -19 -75 -20 -70 -2 6 23 127 55
270 33 143 60 253 60 244 1 -9 -15 -87 -34 -174 -20 -86 -33 -160 -30 -163 3
-3 5 -1 5 4 0 5 9 47 20 94 11 47 30 130 41 185 23 107 25 118 58 265 45 204
51 236 50 250 0 8 -14 -39 -29 -105 -15 -66 -29 -113 -29 -104 -1 9 12 75 28
145 16 71 35 160 42 198 7 38 15 64 17 58 2 -6 -4 -45 -13 -88 -9 -42 -13 -79
-10 -82 3 -3 5 -1 5 4 1 5 5 27 9 49 20 92 102 505 112 560 6 33 14 80 19 105
5 25 14 77 20 115 6 39 15 95 20 125 32 191 59 395 80 610 24 248 30 342 28
441 -2 83 -3 89 -5 29 -3 -106 -22 -369 -33 -470 -20 -190 -42 -365 -46 -369
-7 -7 -5 23 10 146 49 397 60 578 60 973 0 354 -7 486 -40 759 -8 68 -12 126
-9 129 3 3 5 1 5 -4 0 -5 7 -63 14 -129 25 -200 37 -387 46 -680 l9 -280 -5
305 c-5 384 -25 610 -83 942 -23 131 -105 438 -118 438 -2 0 -2 -8 1 -17 2
-10 8 -29 11 -43 13 -45 -5 -15 -19 33 -8 26 -10 44 -5 41 14 -8 11 5 -15 77
-58 161 -179 404 -196 394 -5 -3 -12 0 -16 6 -4 8 -3 9 4 5 16 -10 15 -1 -3
35 -9 16 -20 27 -25 24 -5 -3 -12 0 -16 6 -5 8 -3 9 6 4 8 -5 11 -3 8 6 -3 8
-10 14 -15 14 -6 0 -15 4 -20 9 -5 5 -2 6 6 1 9 -5 12 -3 9 6 -3 8 -10 14 -15
14 -6 0 -15 4 -20 9 -5 5 -2 6 6 1 9 -5 12 -3 9 6 -3 8 -10 14 -15 14 -6 0
-15 4 -20 9 -5 5 -2 6 6 1 9 -5 12 -3 9 6 -3 8 -10 14 -16 14 -6 0 -17 7 -24
15 -11 12 -11 12 5 1 25 -19 21 2 -5 25 -13 12 -18 13 -13 4 8 -13 7 -13 -8
-1 -18 15 -23 26 -7 16 17 -10 11 12 -7 26 -15 12 -16 12 -8 -1 8 -13 7 -13
-8 -1 -18 15 -23 26 -7 16 42 -26 -54 87 -178 209 -106 104 -248 209 -372 275
-56 29 -103 51 -105 50 -2 -2 38 -26 88 -52 51 -26 103 -57 117 -68 16 -13 9
-11 -20 6 -73 43 -240 121 -310 144 -182 59 -224 64 -550 66 -168 1 -316 -2
-330 -6z"/>
<path d="M8035 10800 c-33 -5 -76 -7 -95 -4 -20 3 -47 0 -60 -5 -21 -8 -17 -9
20 -5 30 3 15 -3 -45 -20 -241 -65 -477 -186 -680 -348 -51 -41 -19 -8 46 47
45 39 18 22 -46 -29 -63 -49 -285 -268 -285 -280 0 -4 8 -2 18 5 9 7 6 1 -7
-14 -27 -30 -41 -37 -20 -9 11 14 10 13 -9 -2 -23 -20 -31 -42 -9 -30 8 5 8 2
-2 -9 -16 -20 -25 -23 -15 -4 4 6 -2 3 -14 -7 -26 -23 -30 -45 -4 -25 15 13
16 12 4 -3 -8 -10 -19 -16 -24 -15 -6 1 -13 -4 -16 -12 -3 -8 0 -11 7 -7 17
11 13 0 -6 -15 -15 -12 -16 -12 -8 1 8 13 7 13 -8 1 -20 -16 -23 -36 -4 -25 7
4 9 3 4 -2 -5 -5 -14 -9 -19 -9 -6 0 -13 -6 -16 -14 -3 -9 0 -11 9 -6 8 5 11
4 6 -1 -5 -5 -14 -9 -19 -9 -6 0 -13 -6 -16 -14 -3 -9 0 -11 9 -6 8 5 11 4 6
-1 -5 -5 -13 -9 -17 -9 -11 0 -70 -91 -70 -107 0 -7 7 -3 16 8 14 18 15 18 4
-4 -6 -12 -15 -20 -20 -17 -11 7 -82 -126 -75 -143 3 -7 0 -10 -5 -7 -6 3 -14
-4 -19 -17 -5 -13 -24 -57 -43 -98 -52 -114 -61 -138 -54 -155 3 -9 2 -14 -3
-11 -11 7 -26 -28 -77 -183 -45 -136 -51 -167 -34 -156 6 3 6 -5 0 -22 -16
-52 -20 -58 -15 -23 9 68 -12 5 -43 -125 -50 -211 -93 -441 -91 -491 1 -16 7
9 15 56 25 156 57 320 62 316 2 -3 -5 -54 -16 -113 -21 -107 -55 -331 -66
-428 -47 -409 -71 -1118 -47 -1358 5 -51 15 -150 21 -222 14 -170 29 -336 40
-460 15 -169 22 -290 17 -285 -3 3 -10 66 -16 140 -13 161 -30 353 -40 470 -7
70 -8 76 -10 32 0 -30 3 -95 9 -145 5 -51 14 -148 20 -217 23 -280 32 -378 40
-445 7 -60 8 -53 5 45 -4 114 -4 115 5 30 8 -80 17 -186 40 -450 6 -63 15
-164 20 -225 22 -246 32 -387 27 -391 -3 -3 -8 37 -11 88 -4 51 -11 134 -16
183 -5 50 -14 158 -20 240 -7 83 -13 157 -15 165 -7 37 -4 -101 5 -183 9 -88
18 -193 41 -467 15 -184 28 -299 40 -350 15 -60 38 -112 48 -105 5 2 15 -3 22
-13 13 -15 12 -16 -3 -3 -11 8 -18 9 -18 3 0 -13 71 -72 80 -67 4 3 33 -5 65
-16 59 -21 216 -46 720 -119 617 -89 1369 -208 1620 -256 72 -14 258 -56 415
-94 407 -98 484 -113 555 -106 106 11 116 14 141 37 25 24 33 46 12 33 -9 -5
-9 -2 1 9 15 19 26 23 15 5 -4 -7 -3 -8 5 -4 6 4 20 25 31 46 21 40 27 66 10
40 -5 -8 -10 -10 -10 -5 0 15 16 37 26 36 5 0 24 43 42 96 33 99 39 130 22
103 -5 -8 -10 -12 -10 -7 0 13 72 252 77 257 5 5 3 -7 -13 -70 -4 -14 -4 -23
-1 -19 7 5 77 242 77 256 0 4 -5 1 -11 -7 -8 -12 -9 -11 -6 5 2 11 8 19 14 18
12 -2 28 46 18 55 -3 3 -5 -2 -5 -11 0 -9 -4 -18 -10 -22 -9 -6 12 76 31 118
9 20 9 20 4 -3 -3 -14 -8 -36 -11 -50 -4 -14 -5 -23 -2 -20 11 9 79 252 74
258 -3 3 -6 -2 -6 -11 0 -9 -4 -18 -9 -21 -5 -3 -4 13 2 36 8 32 12 37 17 23
5 -13 12 1 24 49 9 38 15 70 13 73 -3 2 -10 -19 -17 -47 -7 -28 -14 -49 -17
-47 -2 3 21 98 51 213 31 114 56 215 57 224 0 8 3 10 5 4 3 -7 -4 -49 -16 -94
-12 -45 -19 -84 -17 -87 5 -4 57 200 56 219 0 7 -4 4 -9 -7 -7 -14 -8 -8 -3
19 9 60 31 133 33 111 2 -25 40 112 39 140 -1 11 -9 -11 -19 -50 -24 -94 -24
-61 -1 40 11 44 20 69 21 55 l2 -25 8 25 c4 14 8 36 8 50 l0 25 -8 -25 c-7
-18 -7 -12 -4 20 9 73 32 168 34 140 l2 -25 8 25 c4 14 8 36 8 50 l0 25 -8
-25 c-6 -20 -8 -21 -8 -5 -1 11 3 38 7 60 8 37 9 38 11 10 l2 -30 8 30 c4 17
8 44 8 60 l0 30 -8 -30 c-13 -53 -11 -13 9 130 51 362 56 450 56 920 0 370 -3
481 -19 623 -10 95 -15 176 -12 179 3 4 6 -9 6 -27 0 -18 3 -31 6 -27 3 3 2
34 -2 69 -7 57 -9 59 -14 28 -4 -28 -8 -14 -19 65 -7 55 -24 156 -37 225 -25
132 -28 158 -14 125 15 -36 10 7 -9 80 -11 39 -20 61 -21 50 -1 -11 -16 32
-34 95 -43 152 -49 179 -36 160 8 -13 10 -13 10 3 0 9 -9 25 -20 34 -11 10
-20 22 -20 28 0 5 5 3 10 -5 9 -13 10 -13 10 0 0 8 -5 22 -10 30 -9 13 -10 13
-11 0 0 -10 -3 -8 -9 5 -12 27 -12 43 0 25 9 -13 10 -13 10 0 0 8 -5 22 -10
30 -9 13 -10 13 -11 0 0 -10 -3 -8 -9 5 -12 27 -12 43 0 25 15 -23 12 0 -6 47
-9 24 -23 43 -30 43 -8 0 -14 5 -14 11 0 5 5 7 12 3 13 -8 13 -9 -32 100 -17
41 -36 74 -42 73 -6 -1 -13 4 -16 12 -3 9 0 11 8 6 8 -5 11 -3 8 6 -3 8 -10
13 -16 12 -6 -2 -9 3 -6 10 6 16 -45 129 -55 123 -4 -3 -7 5 -7 17 1 12 -4 21
-11 20 -7 -2 -10 3 -7 10 6 18 -61 142 -77 142 -7 0 -14 7 -16 15 -4 13 -3 13
6 0 16 -22 13 -3 -4 31 -9 16 -20 27 -25 24 -5 -3 -12 0 -16 6 -4 8 -3 9 4 5
16 -10 15 -1 -3 35 -9 16 -20 27 -25 24 -5 -3 -12 0 -16 6 -5 8 -3 9 6 4 8 -5
11 -3 8 6 -3 8 -10 14 -15 14 -6 0 -15 4 -20 9 -5 5 -2 6 6 1 9 -5 12 -3 9 6
-3 8 -10 14 -15 14 -6 0 -15 4 -20 9 -5 5 -2 6 6 1 9 -5 12 -3 9 6 -3 8 -10
14 -15 14 -6 0 -15 4 -20 9 -5 5 -2 6 6 1 9 -5 12 -3 9 6 -3 8 -10 14 -15 14
-6 0 -15 4 -20 9 -5 5 -2 6 6 1 9 -5 12 -3 9 6 -3 8 -10 14 -15 14 -6 0 -15 4
-20 9 -5 5 -3 6 5 2 18 -11 15 9 -5 25 -11 10 -14 10 -9 2 11 -19 1 -16 -15 4
-10 11 -10 14 -1 9 18 -11 15 9 -5 25 -15 12 -16 12 -8 -1 8 -13 7 -13 -8 -1
-18 15 -23 26 -7 16 19 -12 10 12 -12 31 -22 19 -23 19 -8 -1 15 -20 14 -20
-8 -1 -23 20 -30 32 -12 21 19 -12 10 12 -12 31 -22 19 -23 19 -8 -1 15 -20
14 -20 -8 -1 -23 20 -30 32 -12 21 33 -21 -4 27 -106 133 -123 130 -259 244
-402 340 -97 65 -273 165 -279 158 -3 -2 31 -23 75 -46 44 -22 88 -47 98 -55
11 -8 -42 16 -116 54 -164 85 -331 151 -465 185 -55 13 -109 27 -120 30 -11 3
3 3 30 0 28 -3 46 -2 42 2 -4 5 -42 9 -85 10 -42 1 -149 5 -237 7 -88 3 -187
2 -220 -3z"/>
<path d="M3140 5399 c-595 -49 -1469 -111 -1747 -124 -388 -17 -517 -28 -585
-51 -26 -8 -52 -13 -57 -9 -11 6 -91 -61 -91 -77 0 -5 5 -6 12 -2 7 4 8 3 4
-5 -4 -6 -12 -9 -17 -6 -15 10 -29 -41 -29 -103 0 -31 11 -97 24 -147 25 -94
44 -147 46 -130 0 12 20 -16 20 -30 0 -5 -5 -3 -10 5 -17 26 -11 -9 11 -65 18
-46 18 -43 4 25 -3 14 1 9 8 -10 20 -50 30 -99 17 -80 -5 8 -10 11 -10 7 0
-12 69 -240 75 -246 8 -8 6 16 -5 43 -5 14 -7 26 -5 26 7 0 20 -35 29 -75 5
-22 4 -26 -4 -15 -5 8 -10 10 -10 5 0 -16 58 -182 59 -168 1 6 -3 23 -9 37 -5
14 -7 26 -5 26 7 0 23 -42 31 -78 4 -21 3 -24 -5 -12 -18 25 -13 -1 16 -83 14
-42 30 -72 33 -66 5 7 9 6 13 -5 3 -8 2 -16 -4 -18 -5 -2 3 -39 18 -83 14 -44
29 -73 31 -66 3 8 13 -7 24 -33 10 -27 17 -51 14 -53 -2 -2 -9 12 -16 32 -7
20 -14 34 -16 32 -7 -7 61 -189 70 -187 10 2 26 -20 26 -35 0 -5 -5 -3 -11 5
-8 11 -9 9 -3 -10 13 -47 25 -73 30 -67 3 3 0 15 -6 27 -6 12 -10 24 -7 26 4
5 37 -70 37 -84 0 -4 -5 0 -11 8 -8 11 -9 9 -3 -10 13 -47 25 -73 30 -67 3 3
0 15 -6 27 -6 12 -10 24 -7 26 3 4 20 -31 55 -115 3 -9 1 -12 -6 -7 -16 10
-16 7 13 -58 14 -32 29 -55 34 -52 4 3 13 -7 20 -22 11 -25 10 -26 -4 -8 -19
25 -19 18 0 -28 9 -20 19 -35 24 -32 4 3 7 -5 7 -17 -1 -12 4 -21 11 -20 7 2
10 -3 7 -11 -7 -18 84 -199 96 -191 5 3 12 0 16 -6 4 -8 3 -9 -4 -5 -16 10
-15 1 3 -35 9 -16 20 -27 25 -24 5 3 12 0 16 -6 4 -8 3 -9 -4 -5 -16 10 -15 1
3 -35 9 -16 20 -27 24 -24 5 2 15 -3 22 -13 13 -15 12 -16 -3 -3 -22 17 -23 8
-2 -24 9 -14 20 -23 24 -20 5 3 12 0 16 -6 5 -8 3 -9 -6 -4 -8 5 -11 3 -8 -6
3 -8 10 -14 15 -14 6 0 15 -4 20 -9 5 -5 3 -6 -4 -2 -19 11 -16 -9 4 -25 11
-10 14 -10 9 -1 -11 18 -1 15 15 -5 10 -11 10 -14 2 -9 -19 11 -16 -9 4 -25
11 -10 14 -10 9 -1 -11 18 -1 15 15 -5 10 -11 10 -14 2 -9 -19 11 -16 -9 4
-25 11 -10 14 -10 9 -1 -11 18 -1 15 15 -5 10 -11 10 -14 2 -9 -22 12 -14 -10
9 -30 22 -19 23 -19 8 1 -11 15 -7 14 13 -4 28 -25 38 -43 12 -21 -32 27 -13
-8 22 -41 25 -22 29 -24 14 -6 -34 38 -21 34 15 -5 16 -17 23 -28 17 -24 -62
35 110 -139 207 -210 61 -45 120 -83 105 -68 -5 6 -34 27 -62 48 -82 58 -62
52 27 -9 215 -146 450 -218 715 -218 307 0 596 106 828 306 32 27 60 48 62 46
1 -2 -29 -30 -69 -61 -114 -92 -124 -102 -66 -62 81 55 161 125 154 135 -3 5
0 8 8 7 7 -2 12 3 10 10 -1 6 4 11 10 10 7 -2 12 3 10 10 -1 6 3 11 9 10 6 -2
14 3 17 11 3 9 0 11 -9 6 -8 -4 2 8 20 28 19 21 37 37 40 37 3 0 -8 -14 -24
-30 -16 -16 -26 -30 -22 -30 9 0 76 73 77 84 0 5 -8 2 -17 -5 -16 -13 -17 -12
-5 3 8 10 19 16 24 15 6 -1 13 4 16 12 3 10 0 11 -9 5 -12 -7 -12 -5 0 9 16
20 25 23 15 5 -4 -7 2 -4 14 6 26 23 30 45 5 25 -16 -13 -17 -12 -5 3 8 10 19
16 24 15 6 -1 13 4 16 12 3 9 0 11 -9 6 -8 -5 -11 -4 -6 1 5 5 14 9 20 9 5 0
12 6 15 14 3 9 0 11 -9 6 -8 -5 -11 -4 -6 1 5 5 14 9 20 9 5 0 12 6 15 14 3 9
0 11 -8 6 -9 -5 -11 -4 -6 4 4 6 11 9 16 6 4 -3 29 32 54 76 46 81 55 106 36
94 -6 -3 -7 1 -3 10 4 13 8 14 14 4 9 -15 42 58 34 78 -2 8 -1 12 4 9 9 -6 26
31 60 127 22 62 26 81 13 73 -4 -2 3 37 15 87 13 51 30 126 37 167 9 46 15 64
16 45 l2 -30 8 35 c15 64 33 352 27 444 -5 84 -41 294 -52 305 -3 2 -5 -4 -6
-15 -1 -28 -17 24 -17 56 0 22 1 22 8 -5 l8 -30 0 30 c0 17 -3 39 -8 50 l-9
20 -1 -20 c-2 -17 -3 -16 -10 5 -4 14 -8 36 -8 50 0 23 1 22 9 -5 7 -26 8 -25
4 10 -6 46 -6 47 -74 385 -28 139 -54 256 -58 260 -5 4 -2 -16 14 -105 3 -16
3 -28 0 -25 -6 6 -77 351 -76 371 1 8 5 1 10 -16 7 -26 8 -25 4 10 -11 95 -55
175 -101 181 -138 20 -202 25 -394 28 -124 3 -277 0 -340 -5z"/>
<path d="M6420 3513 c-46 -41 -68 -74 -37 -57 7 4 9 3 4 -2 -5 -5 -14 -9 -20
-9 -6 0 -26 -40 -43 -90 -34 -94 -40 -120 -25 -111 5 4 7 -3 4 -14 -3 -11 -9
-23 -14 -26 -5 -3 -6 3 -3 13 5 15 4 16 -5 3 -13 -18 -14 -43 -2 -36 5 4 7 -3
4 -14 -3 -11 -9 -23 -14 -26 -5 -3 -6 3 -2 13 3 10 4 16 0 13 -6 -6 -45 -115
-132 -375 -81 -242 -112 -347 -125 -414 -19 -100 -40 -366 -38 -481 1 -110 1
-107 9 60 5 96 13 207 18 245 l10 70 -5 -75 c-24 -406 -27 -694 -9 -985 l4
-70 -9 60 c-5 33 -14 177 -19 320 l-10 260 5 -265 c5 -308 15 -401 56 -525 38
-113 98 -246 109 -240 4 3 11 0 15 -6 4 -8 3 -9 -4 -5 -17 10 -15 1 13 -55 14
-27 30 -47 35 -44 5 3 12 0 16 -6 5 -8 3 -9 -6 -4 -8 5 -11 3 -8 -6 3 -8 10
-14 15 -14 6 0 15 -4 20 -9 5 -5 2 -6 -6 -1 -9 5 -12 3 -9 -6 3 -8 10 -14 16
-14 5 0 14 -4 19 -9 5 -5 2 -6 -6 -1 -9 5 -12 3 -9 -6 3 -8 10 -14 16 -14 5 0
14 -4 19 -9 5 -5 2 -6 -6 -1 -9 5 -12 3 -9 -6 3 -8 10 -13 16 -12 5 1 16 -5
24 -15 12 -15 11 -16 -4 -3 -26 20 -22 -2 4 -25 14 -12 18 -14 13 -4 -4 8 4 4
18 -9 15 -14 27 -27 27 -29 0 -3 -9 3 -20 13 -11 10 -20 13 -20 8 0 -30 339
-317 355 -301 2 2 -31 27 -73 55 -42 28 -113 86 -157 128 l-80 77 75 -67 c183
-164 353 -254 605 -321 59 -16 75 -22 45 -19 -31 4 -39 2 -25 -4 25 -11 561
-11 595 0 18 6 13 7 -20 4 -35 -4 -26 0 37 18 188 53 359 146 518 281 32 28
56 45 52 39 -5 -7 -4 -13 0 -13 16 0 114 106 106 115 -5 4 -3 5 3 2 6 -3 32
18 57 48 48 55 60 78 30 54 -10 -7 -7 -1 6 14 28 30 40 36 21 10 -7 -10 6 2
29 27 23 25 39 50 37 57 -3 6 3 17 12 25 16 12 16 11 2 -7 -15 -20 -14 -20 8
-1 23 20 31 42 10 30 -9 -5 -9 -2 1 9 16 20 26 23 15 5 -5 -9 -2 -9 9 1 20 16
23 36 5 25 -9 -5 -9 -2 1 9 16 20 26 23 15 5 -5 -9 -2 -9 9 1 20 16 23 36 5
25 -8 -4 -10 -3 -5 2 5 5 14 9 20 9 5 0 12 6 15 14 3 9 0 11 -8 6 -9 -5 -11
-4 -6 4 4 6 11 9 16 6 5 -3 16 5 24 17 19 27 21 42 4 32 -8 -4 -10 -3 -5 2 5
5 14 9 20 9 5 0 12 6 15 14 3 9 0 11 -9 6 -8 -5 -11 -4 -6 1 5 5 14 9 20 9 5
0 12 6 15 14 3 9 0 11 -9 6 -8 -5 -11 -4 -6 1 5 5 14 9 20 9 5 0 12 6 15 14 3
9 0 11 -9 6 -8 -5 -11 -4 -6 1 5 5 14 9 20 9 5 0 12 6 15 14 3 9 0 11 -8 6 -9
-5 -11 -4 -6 4 4 6 11 9 16 6 5 -3 14 3 19 14 14 26 14 34 -1 25 -7 -4 -8 -3
-4 5 4 6 11 9 16 6 12 -7 53 72 45 86 -4 5 -1 8 5 7 12 -3 100 144 100 166 0
6 -5 4 -11 -4 -9 -13 -10 -13 -6 0 2 8 9 15 16 15 15 0 172 301 320 613 55
118 101 216 101 218 0 3 -4 2 -10 -1 -6 -3 -7 1 -4 9 3 9 10 14 16 13 8 -2
197 395 198 416 0 5 -5 5 -11 2 -5 -4 -3 10 6 31 16 38 34 64 22 32 -19 -50
-20 -53 -10 -43 13 14 53 123 52 143 0 13 -2 13 -8 -3 -5 -11 -6 14 -3 56 3
50 0 84 -8 100 -11 20 -10 22 1 11 8 -7 17 -43 20 -80 l6 -67 1 58 c2 68 -20
120 -69 161 -35 30 -90 60 -129 70 -14 4 7 -9 46 -28 39 -20 77 -43 85 -52 7
-9 -9 -2 -36 15 -90 57 -107 61 -1200 252 -645 113 -1714 287 -1793 292 l-73
4 -49 -44z"/>
</g>
</svg>
